solid Mesh
  facet normal -1 0 0
    outer loop
      vertex -10.3 13.5 -16.2
      vertex -10.3 9.75 -16.2
      vertex -10.3 13.5 -7.7
    endloop
  endfacet
  facet normal -1 0 0
    outer loop
      vertex -10.3 9.75 -16.2
      vertex -10.3 9.75 -11.15
      vertex -10.3 13.5 -7.7
    endloop
  endfacet
  facet normal -1 0 0
    outer loop
      vertex -10.3 13.5 -7.7
      vertex -10.3 9.75 -11.15
      vertex -10.3 9.5 -7.7
    endloop
  endfacet
  facet normal -1 0 0
    outer loop
      vertex -10.3 9.75 -11.15
      vertex -10.3 8 -11.15
      vertex -10.3 9.5 -7.7
    endloop
  endfacet
  facet normal -1 0 0
    outer loop
      vertex -10.3 9.5 -7.7
      vertex -10.3 8 -11.15
      vertex -10.3 9.5 -3.4
    endloop
  endfacet
  facet normal -1 0 0
    outer loop
      vertex -10.3 8 -11.15
      vertex -10.3 8 -3.4
      vertex -10.3 9.5 -3.4
    endloop
  endfacet
  facet normal 1 0 0
    outer loop
      vertex 10.3 9.5 -3.4
      vertex 10.3 8 -3.4
      vertex 10.3 9.5 -7.7
    endloop
  endfacet
  facet normal 1 0 0
    outer loop
      vertex 10.3 8 -3.4
      vertex 10.3 8 -11.15
      vertex 10.3 9.5 -7.7
    endloop
  endfacet
  facet normal 1 0 0
    outer loop
      vertex 10.3 9.5 -7.7
      vertex 10.3 8 -11.15
      vertex 10.3 13.5 -7.7
    endloop
  endfacet
  facet normal 1 0 0
    outer loop
      vertex 10.3 8 -11.15
      vertex 10.3 9.75 -11.15
      vertex 10.3 13.5 -7.7
    endloop
  endfacet
  facet normal 1 0 0
    outer loop
      vertex 10.3 13.5 -7.7
      vertex 10.3 9.75 -11.15
      vertex 10.3 13.5 -16.2
    endloop
  endfacet
  facet normal 1 0 0
    outer loop
      vertex 10.3 9.75 -11.15
      vertex 10.3 9.75 -16.2
      vertex 10.3 13.5 -16.2
    endloop
  endfacet
  facet normal 0 0 -1
    outer loop
      vertex -10.3 9.75 -11.15
      vertex 10.3 9.75 -11.15
      vertex -10.3 8 -11.15
    endloop
  endfacet
  facet normal 0 0 -1
    outer loop
      vertex 10.3 9.75 -11.15
      vertex 10.3 8 -11.15
      vertex -10.3 8 -11.15
    endloop
  endfacet
  facet normal 0 0 -1
    outer loop
      vertex -10.3 13.5 -16.2
      vertex 10.3 13.5 -16.2
      vertex -10.3 9.75 -16.2
    endloop
  endfacet
  facet normal 0 0 -1
    outer loop
      vertex 10.3 13.5 -16.2
      vertex 10.3 9.75 -16.2
      vertex -10.3 9.75 -16.2
    endloop
  endfacet
  facet normal 0 -1 0
    outer loop
      vertex 8.0779 9.75 -14.3168
      vertex 7.89347 9.75 -14.379
      vertex 10.3 9.75 -16.2
    endloop
  endfacet
  facet normal 0 -1 0
    outer loop
      vertex -10.3 9.75 -16.2
      vertex -7.7 9.75 -14.4
      vertex -7.89347 9.75 -14.379
    endloop
  endfacet
  facet normal 0 -1 0
    outer loop
      vertex -10.3 9.75 -16.2
      vertex 7.15534 9.75 -14.2165
      vertex 7.01405 9.75 -14.0826
    endloop
  endfacet
  facet normal 0 -1 0
    outer loop
      vertex 10.3 9.75 -16.2
      vertex 10.3 9.75 -11.15
      vertex 8.59868 9.75 -13.4513
    endloop
  endfacet
  facet normal 0 -1 0
    outer loop
      vertex 8.59868 9.75 -13.4513
      vertex 8.58814 9.75 -13.6456
      vertex 10.3 9.75 -16.2
    endloop
  endfacet
  facet normal 0 -1 0
    outer loop
      vertex 8.58814 9.75 -13.6456
      vertex 8.53608 9.75 -13.8331
      vertex 10.3 9.75 -16.2
    endloop
  endfacet
  facet normal 0 -1 0
    outer loop
      vertex 10.3 9.75 -16.2
      vertex 8.53608 9.75 -13.8331
      vertex 8.44492 9.75 -14.0051
    endloop
  endfacet
  facet normal 0 -1 0
    outer loop
      vertex 7.89347 9.75 -14.379
      vertex 7.7 9.75 -14.4
      vertex 10.3 9.75 -16.2
    endloop
  endfacet
  facet normal 0 -1 0
    outer loop
      vertex 7.7 9.75 -14.4
      vertex 7.50653 9.75 -14.379
      vertex 10.3 9.75 -16.2
    endloop
  endfacet
  facet normal 0 -1 0
    outer loop
      vertex 10.3 9.75 -16.2
      vertex 7.50653 9.75 -14.379
      vertex -10.3 9.75 -16.2
    endloop
  endfacet
  facet normal 0 -1 0
    outer loop
      vertex 7.50653 9.75 -14.379
      vertex 7.3221 9.75 -14.3168
      vertex -10.3 9.75 -16.2
    endloop
  endfacet
  facet normal 0 -1 0
    outer loop
      vertex -10.3 9.75 -16.2
      vertex 7.3221 9.75 -14.3168
      vertex 7.15534 9.75 -14.2165
    endloop
  endfacet
  facet normal 0 -1 0
    outer loop
      vertex 8.44492 9.75 -14.0051
      vertex 8.38595 9.75 -14.0826
      vertex 10.3 9.75 -16.2
    endloop
  endfacet
  facet normal 0 -1 0
    outer loop
      vertex 8.38595 9.75 -14.0826
      vertex 8.24466 9.75 -14.2165
      vertex 10.3 9.75 -16.2
    endloop
  endfacet
  facet normal 0 -1 0
    outer loop
      vertex 10.3 9.75 -16.2
      vertex 8.24466 9.75 -14.2165
      vertex 8.0779 9.75 -14.3168
    endloop
  endfacet
  facet normal 0 -1 0
    outer loop
      vertex 7.01405 9.75 -14.0826
      vertex 6.95508 9.75 -14.0051
      vertex -10.3 9.75 -16.2
    endloop
  endfacet
  facet normal 0 -1 0
    outer loop
      vertex 6.95508 9.75 -14.0051
      vertex 6.90484 9.75 -13.9216
      vertex -10.3 9.75 -16.2
    endloop
  endfacet
  facet normal 0 -1 0
    outer loop
      vertex -10.3 9.75 -16.2
      vertex 6.90484 9.75 -13.9216
      vertex 6.8328 9.75 -13.7408
    endloop
  endfacet
  facet normal 0 -1 0
    outer loop
      vertex -7.7 9.75 -14.4
      vertex -10.3 9.75 -16.2
      vertex -7.50653 9.75 -14.379
    endloop
  endfacet
  facet normal 0 -1 0
    outer loop
      vertex -10.3 9.75 -16.2
      vertex 6.8328 9.75 -13.7408
      vertex -7.50653 9.75 -14.379
    endloop
  endfacet
  facet normal 0 -1 0
    outer loop
      vertex -7.50653 9.75 -14.379
      vertex 6.8328 9.75 -13.7408
      vertex -7.3221 9.75 -14.3168
    endloop
  endfacet
  facet normal 0 -1 0
    outer loop
      vertex 6.8328 9.75 -13.7408
      vertex 6.80132 9.75 -13.5487
      vertex -7.3221 9.75 -14.3168
    endloop
  endfacet
  facet normal 0 -1 0
    outer loop
      vertex -7.3221 9.75 -14.3168
      vertex 6.80132 9.75 -13.5487
      vertex -7.15534 9.75 -14.2165
    endloop
  endfacet
  facet normal 0 -1 0
    outer loop
      vertex -8.58814 9.75 -13.3544
      vertex -10.3 9.75 -11.15
      vertex -8.59868 9.75 -13.5487
    endloop
  endfacet
  facet normal 0 -1 0
    outer loop
      vertex -10.3 9.75 -11.15
      vertex -10.3 9.75 -16.2
      vertex -8.59868 9.75 -13.5487
    endloop
  endfacet
  facet normal 0 -1 0
    outer loop
      vertex -8.59868 9.75 -13.5487
      vertex -10.3 9.75 -16.2
      vertex -8.5672 9.75 -13.7408
    endloop
  endfacet
  facet normal 0 -1 0
    outer loop
      vertex -7.89347 9.75 -14.379
      vertex -8.0779 9.75 -14.3168
      vertex -10.3 9.75 -16.2
    endloop
  endfacet
  facet normal 0 -1 0
    outer loop
      vertex -8.0779 9.75 -14.3168
      vertex -8.24466 9.75 -14.2165
      vertex -10.3 9.75 -16.2
    endloop
  endfacet
  facet normal 0 -1 0
    outer loop
      vertex -10.3 9.75 -16.2
      vertex -8.24466 9.75 -14.2165
      vertex -8.38595 9.75 -14.0826
    endloop
  endfacet
  facet normal 0 -1 0
    outer loop
      vertex 6.86392 9.75 -13.1669
      vertex -7.15534 9.75 -12.7835
      vertex -7.01405 9.75 -12.9174
    endloop
  endfacet
  facet normal 0 -1 0
    outer loop
      vertex 8.38595 9.75 -12.9174
      vertex 8.49516 9.75 -13.0784
      vertex 10.3 9.75 -11.15
    endloop
  endfacet
  facet normal 0 -1 0
    outer loop
      vertex 8.49516 9.75 -13.0784
      vertex 8.5672 9.75 -13.2592
      vertex 10.3 9.75 -11.15
    endloop
  endfacet
  facet normal 0 -1 0
    outer loop
      vertex 10.3 9.75 -11.15
      vertex 8.5672 9.75 -13.2592
      vertex 8.59868 9.75 -13.4513
    endloop
  endfacet
  facet normal 0 -1 0
    outer loop
      vertex -8.38595 9.75 -14.0826
      vertex -8.44492 9.75 -14.0051
      vertex -10.3 9.75 -16.2
    endloop
  endfacet
  facet normal 0 -1 0
    outer loop
      vertex -8.44492 9.75 -14.0051
      vertex -8.49516 9.75 -13.9216
      vertex -10.3 9.75 -16.2
    endloop
  endfacet
  facet normal 0 -1 0
    outer loop
      vertex -10.3 9.75 -16.2
      vertex -8.49516 9.75 -13.9216
      vertex -8.5672 9.75 -13.7408
    endloop
  endfacet
  facet normal 0 -1 0
    outer loop
      vertex 6.80132 9.75 -13.5487
      vertex -6.81186 9.75 -13.6456
      vertex -6.86392 9.75 -13.8331
    endloop
  endfacet
  facet normal 0 -1 0
    outer loop
      vertex 7.89347 9.75 -12.621
      vertex 8.0779 9.75 -12.6832
      vertex 10.3 9.75 -11.15
    endloop
  endfacet
  facet normal 0 -1 0
    outer loop
      vertex 8.0779 9.75 -12.6832
      vertex 8.24466 9.75 -12.7835
      vertex 10.3 9.75 -11.15
    endloop
  endfacet
  facet normal 0 -1 0
    outer loop
      vertex 10.3 9.75 -11.15
      vertex 8.24466 9.75 -12.7835
      vertex 8.38595 9.75 -12.9174
    endloop
  endfacet
  facet normal 0 -1 0
    outer loop
      vertex -8.58814 9.75 -13.3544
      vertex -8.53608 9.75 -13.1669
      vertex -10.3 9.75 -11.15
    endloop
  endfacet
  facet normal 0 -1 0
    outer loop
      vertex -8.53608 9.75 -13.1669
      vertex -8.44492 9.75 -12.9949
      vertex -10.3 9.75 -11.15
    endloop
  endfacet
  facet normal 0 -1 0
    outer loop
      vertex -10.3 9.75 -11.15
      vertex -8.44492 9.75 -12.9949
      vertex -8.31893 9.75 -12.8466
    endloop
  endfacet
  facet normal 0 -1 0
    outer loop
      vertex -8.31893 9.75 -12.8466
      vertex -8.164 9.75 -12.7288
      vertex -10.3 9.75 -11.15
    endloop
  endfacet
  facet normal 0 -1 0
    outer loop
      vertex -8.164 9.75 -12.7288
      vertex -7.98737 9.75 -12.6471
      vertex -10.3 9.75 -11.15
    endloop
  endfacet
  facet normal 0 -1 0
    outer loop
      vertex -10.3 9.75 -11.15
      vertex -7.98737 9.75 -12.6471
      vertex -7.79731 9.75 -12.6053
    endloop
  endfacet
  facet normal 0 -1 0
    outer loop
      vertex -7.79731 9.75 -12.6053
      vertex -7.7 9.75 -12.6
      vertex -10.3 9.75 -11.15
    endloop
  endfacet
  facet normal 0 -1 0
    outer loop
      vertex -7.7 9.75 -12.6
      vertex -7.50653 9.75 -12.621
      vertex -10.3 9.75 -11.15
    endloop
  endfacet
  facet normal 0 -1 0
    outer loop
      vertex -10.3 9.75 -11.15
      vertex -7.50653 9.75 -12.621
      vertex 6.86392 9.75 -13.1669
    endloop
  endfacet
  facet normal 0 -1 0
    outer loop
      vertex -7.50653 9.75 -12.621
      vertex -7.3221 9.75 -12.6832
      vertex 6.86392 9.75 -13.1669
    endloop
  endfacet
  facet normal 0 -1 0
    outer loop
      vertex 6.86392 9.75 -13.1669
      vertex -7.3221 9.75 -12.6832
      vertex -7.15534 9.75 -12.7835
    endloop
  endfacet
  facet normal 0 -1 0
    outer loop
      vertex -7.01405 9.75 -12.9174
      vertex -6.90484 9.75 -13.0784
      vertex 6.86392 9.75 -13.1669
    endloop
  endfacet
  facet normal 0 -1 0
    outer loop
      vertex -6.90484 9.75 -13.0784
      vertex -6.8328 9.75 -13.2592
      vertex 6.86392 9.75 -13.1669
    endloop
  endfacet
  facet normal 0 -1 0
    outer loop
      vertex 6.86392 9.75 -13.1669
      vertex -6.8328 9.75 -13.2592
      vertex -6.80132 9.75 -13.4513
    endloop
  endfacet
  facet normal 0 -1 0
    outer loop
      vertex 6.86392 9.75 -13.1669
      vertex 6.95508 9.75 -12.9949
      vertex -10.3 9.75 -11.15
    endloop
  endfacet
  facet normal 0 -1 0
    outer loop
      vertex 6.95508 9.75 -12.9949
      vertex 7.08107 9.75 -12.8466
      vertex -10.3 9.75 -11.15
    endloop
  endfacet
  facet normal 0 -1 0
    outer loop
      vertex -10.3 9.75 -11.15
      vertex 7.08107 9.75 -12.8466
      vertex 7.236 9.75 -12.7288
    endloop
  endfacet
  facet normal 0 -1 0
    outer loop
      vertex -6.81186 9.75 -13.6456
      vertex 6.80132 9.75 -13.5487
      vertex -6.80132 9.75 -13.4513
    endloop
  endfacet
  facet normal 0 -1 0
    outer loop
      vertex 6.80132 9.75 -13.5487
      vertex 6.81186 9.75 -13.3544
      vertex -6.80132 9.75 -13.4513
    endloop
  endfacet
  facet normal 0 -1 0
    outer loop
      vertex -6.80132 9.75 -13.4513
      vertex 6.81186 9.75 -13.3544
      vertex 6.86392 9.75 -13.1669
    endloop
  endfacet
  facet normal 0 -1 0
    outer loop
      vertex 7.236 9.75 -12.7288
      vertex 7.41263 9.75 -12.6471
      vertex -10.3 9.75 -11.15
    endloop
  endfacet
  facet normal 0 -1 0
    outer loop
      vertex 7.41263 9.75 -12.6471
      vertex 7.60269 9.75 -12.6053
      vertex -10.3 9.75 -11.15
    endloop
  endfacet
  facet normal 0 -1 0
    outer loop
      vertex -10.3 9.75 -11.15
      vertex 7.60269 9.75 -12.6053
      vertex 10.3 9.75 -11.15
    endloop
  endfacet
  facet normal 0 -1 0
    outer loop
      vertex 7.60269 9.75 -12.6053
      vertex 7.7 9.75 -12.6
      vertex 10.3 9.75 -11.15
    endloop
  endfacet
  facet normal 0 -1 0
    outer loop
      vertex 10.3 9.75 -11.15
      vertex 7.7 9.75 -12.6
      vertex 7.89347 9.75 -12.621
    endloop
  endfacet
  facet normal 0 -1 0
    outer loop
      vertex -6.86392 9.75 -13.8331
      vertex -6.95508 9.75 -14.0051
      vertex 6.80132 9.75 -13.5487
    endloop
  endfacet
  facet normal 0 -1 0
    outer loop
      vertex -6.95508 9.75 -14.0051
      vertex -7.01405 9.75 -14.0826
      vertex 6.80132 9.75 -13.5487
    endloop
  endfacet
  facet normal 0 -1 0
    outer loop
      vertex 6.80132 9.75 -13.5487
      vertex -7.01405 9.75 -14.0826
      vertex -7.15534 9.75 -14.2165
    endloop
  endfacet
  facet normal 0 -1 0
    outer loop
      vertex -7.50653 8 -6.37896
      vertex -7.7 8 -6.4
      vertex -10.3 8 -11.15
    endloop
  endfacet
  facet normal 0 -1 0
    outer loop
      vertex 8.38595 8 -6.08265
      vertex 8.24466 8 -6.21648
      vertex 10.3 8 -11.15
    endloop
  endfacet
  facet normal 0 -1 0
    outer loop
      vertex 6.86392 8 -5.83312
      vertex -10.3 8 -11.15
      vertex 6.95508 8 -6.00507
    endloop
  endfacet
  facet normal 0 -1 0
    outer loop
      vertex -10.3 8 -11.15
      vertex 7.08107 8 -6.1534
      vertex 6.95508 8 -6.00507
    endloop
  endfacet
  facet normal 0 -1 0
    outer loop
      vertex 8.38595 8 -6.08265
      vertex 10.3 8 -11.15
      vertex 8.49516 8 -5.92157
    endloop
  endfacet
  facet normal 0 -1 0
    outer loop
      vertex 7.89347 8 -4.62104
      vertex 8.0779 8 -4.68318
      vertex 10.3 8 -3.4
    endloop
  endfacet
  facet normal 0 -1 0
    outer loop
      vertex 8.0779 8 -4.68318
      vertex 8.24466 8 -4.78352
      vertex 10.3 8 -3.4
    endloop
  endfacet
  facet normal 0 -1 0
    outer loop
      vertex 8.24466 8 -6.21648
      vertex 8.0779 8 -6.31682
      vertex 10.3 8 -11.15
    endloop
  endfacet
  facet normal 0 -1 0
    outer loop
      vertex 8.0779 8 -6.31682
      vertex 7.89347 8 -6.37896
      vertex 10.3 8 -11.15
    endloop
  endfacet
  facet normal 0 -1 0
    outer loop
      vertex 10.3 8 -11.15
      vertex 7.89347 8 -6.37896
      vertex 7.7 8 -6.4
    endloop
  endfacet
  facet normal 0 -1 0
    outer loop
      vertex 7.7 8 -6.4
      vertex 7.60269 8 -6.39472
      vertex 10.3 8 -11.15
    endloop
  endfacet
  facet normal 0 -1 0
    outer loop
      vertex 7.60269 8 -6.39472
      vertex 7.41263 8 -6.35289
      vertex 10.3 8 -11.15
    endloop
  endfacet
  facet normal 0 -1 0
    outer loop
      vertex 10.3 8 -11.15
      vertex 7.41263 8 -6.35289
      vertex -10.3 8 -11.15
    endloop
  endfacet
  facet normal 0 -1 0
    outer loop
      vertex 7.41263 8 -6.35289
      vertex 7.236 8 -6.27117
      vertex -10.3 8 -11.15
    endloop
  endfacet
  facet normal 0 -1 0
    outer loop
      vertex -10.3 8 -11.15
      vertex 7.236 8 -6.27117
      vertex 7.08107 8 -6.1534
    endloop
  endfacet
  facet normal 0 -1 0
    outer loop
      vertex -10.3 8 -11.15
      vertex -8.164 8 -6.27117
      vertex -8.31893 8 -6.1534
    endloop
  endfacet
  facet normal 0 -1 0
    outer loop
      vertex -7.15534 8 -4.78352
      vertex -7.01405 8 -4.91735
      vertex 6.80132 8 -5.45128
    endloop
  endfacet
  facet normal 0 -1 0
    outer loop
      vertex -7.01405 8 -4.91735
      vertex -6.95508 8 -4.99493
      vertex 6.80132 8 -5.45128
    endloop
  endfacet
  facet normal 0 -1 0
    outer loop
      vertex -6.95508 8 -4.99493
      vertex -6.86392 8 -5.16688
      vertex 6.80132 8 -5.45128
    endloop
  endfacet
  facet normal 0 -1 0
    outer loop
      vertex -6.86392 8 -5.16688
      vertex -6.81186 8 -5.3544
      vertex 6.80132 8 -5.45128
    endloop
  endfacet
  facet normal 0 -1 0
    outer loop
      vertex 6.80132 8 -5.45128
      vertex -6.81186 8 -5.3544
      vertex 6.81186 8 -5.6456
    endloop
  endfacet
  facet normal 0 -1 0
    outer loop
      vertex -6.81186 8 -5.3544
      vertex -6.80132 8 -5.54872
      vertex 6.81186 8 -5.6456
    endloop
  endfacet
  facet normal 0 -1 0
    outer loop
      vertex 6.81186 8 -5.6456
      vertex -6.80132 8 -5.54872
      vertex 6.86392 8 -5.83312
    endloop
  endfacet
  facet normal 0 -1 0
    outer loop
      vertex -6.80132 8 -5.54872
      vertex -6.8328 8 -5.74078
      vertex 6.86392 8 -5.83312
    endloop
  endfacet
  facet normal 0 -1 0
    outer loop
      vertex 6.86392 8 -5.83312
      vertex -6.8328 8 -5.74078
      vertex -6.90484 8 -5.92157
    endloop
  endfacet
  facet normal 0 -1 0
    outer loop
      vertex -7.7 8 -6.4
      vertex -7.79731 8 -6.39472
      vertex -10.3 8 -11.15
    endloop
  endfacet
  facet normal 0 -1 0
    outer loop
      vertex -7.79731 8 -6.39472
      vertex -7.98737 8 -6.35289
      vertex -10.3 8 -11.15
    endloop
  endfacet
  facet normal 0 -1 0
    outer loop
      vertex -10.3 8 -11.15
      vertex -7.98737 8 -6.35289
      vertex -8.164 8 -6.27117
    endloop
  endfacet
  facet normal 0 -1 0
    outer loop
      vertex 8.24466 8 -4.78352
      vertex 8.38595 8 -4.91735
      vertex 10.3 8 -3.4
    endloop
  endfacet
  facet normal 0 -1 0
    outer loop
      vertex 8.38595 8 -4.91735
      vertex 8.44492 8 -4.99493
      vertex 10.3 8 -3.4
    endloop
  endfacet
  facet normal 0 -1 0
    outer loop
      vertex 10.3 8 -3.4
      vertex 8.44492 8 -4.99493
      vertex 8.53608 8 -5.16688
    endloop
  endfacet
  facet normal 0 -1 0
    outer loop
      vertex 8.53608 8 -5.16688
      vertex 8.58814 8 -5.3544
      vertex 10.3 8 -3.4
    endloop
  endfacet
  facet normal 0 -1 0
    outer loop
      vertex 8.58814 8 -5.3544
      vertex 8.59868 8 -5.54872
      vertex 10.3 8 -3.4
    endloop
  endfacet
  facet normal 0 -1 0
    outer loop
      vertex 10.3 8 -3.4
      vertex 8.59868 8 -5.54872
      vertex 10.3 8 -11.15
    endloop
  endfacet
  facet normal 0 -1 0
    outer loop
      vertex 8.59868 8 -5.54872
      vertex 8.5672 8 -5.74078
      vertex 10.3 8 -11.15
    endloop
  endfacet
  facet normal 0 -1 0
    outer loop
      vertex 10.3 8 -11.15
      vertex 8.5672 8 -5.74078
      vertex 8.49516 8 -5.92157
    endloop
  endfacet
  facet normal 0 -1 0
    outer loop
      vertex -6.90484 8 -5.92157
      vertex -7.01405 8 -6.08265
      vertex 6.86392 8 -5.83312
    endloop
  endfacet
  facet normal 0 -1 0
    outer loop
      vertex -7.01405 8 -6.08265
      vertex -7.15534 8 -6.21648
      vertex 6.86392 8 -5.83312
    endloop
  endfacet
  facet normal 0 -1 0
    outer loop
      vertex 6.86392 8 -5.83312
      vertex -7.15534 8 -6.21648
      vertex -10.3 8 -11.15
    endloop
  endfacet
  facet normal 0 -1 0
    outer loop
      vertex -7.15534 8 -6.21648
      vertex -7.3221 8 -6.31682
      vertex -10.3 8 -11.15
    endloop
  endfacet
  facet normal 0 -1 0
    outer loop
      vertex -10.3 8 -11.15
      vertex -7.3221 8 -6.31682
      vertex -7.50653 8 -6.37896
    endloop
  endfacet
  facet normal 0 -1 0
    outer loop
      vertex -8.31893 8 -6.1534
      vertex -8.44492 8 -6.00507
      vertex -10.3 8 -11.15
    endloop
  endfacet
  facet normal 0 -1 0
    outer loop
      vertex -8.44492 8 -6.00507
      vertex -8.53608 8 -5.83312
      vertex -10.3 8 -11.15
    endloop
  endfacet
  facet normal 0 -1 0
    outer loop
      vertex -10.3 8 -11.15
      vertex -8.53608 8 -5.83312
      vertex -10.3 8 -3.4
    endloop
  endfacet
  facet normal 0 -1 0
    outer loop
      vertex -8.53608 8 -5.83312
      vertex -8.58814 8 -5.6456
      vertex -10.3 8 -3.4
    endloop
  endfacet
  facet normal 0 -1 0
    outer loop
      vertex -10.3 8 -3.4
      vertex 7.50653 8 -4.62104
      vertex 10.3 8 -3.4
    endloop
  endfacet
  facet normal 0 -1 0
    outer loop
      vertex 7.50653 8 -4.62104
      vertex 7.7 8 -4.6
      vertex 10.3 8 -3.4
    endloop
  endfacet
  facet normal 0 -1 0
    outer loop
      vertex 10.3 8 -3.4
      vertex 7.7 8 -4.6
      vertex 7.89347 8 -4.62104
    endloop
  endfacet
  facet normal 0 -1 0
    outer loop
      vertex -10.3 8 -3.4
      vertex -8.24466 8 -4.78352
      vertex -8.0779 8 -4.68318
    endloop
  endfacet
  facet normal 0 -1 0
    outer loop
      vertex -8.58814 8 -5.6456
      vertex -8.59868 8 -5.45128
      vertex -10.3 8 -3.4
    endloop
  endfacet
  facet normal 0 -1 0
    outer loop
      vertex -8.59868 8 -5.45128
      vertex -8.5672 8 -5.25922
      vertex -10.3 8 -3.4
    endloop
  endfacet
  facet normal 0 -1 0
    outer loop
      vertex -10.3 8 -3.4
      vertex -8.5672 8 -5.25922
      vertex -8.49516 8 -5.07843
    endloop
  endfacet
  facet normal 0 -1 0
    outer loop
      vertex -8.0779 8 -4.68318
      vertex -7.89347 8 -4.62104
      vertex -10.3 8 -3.4
    endloop
  endfacet
  facet normal 0 -1 0
    outer loop
      vertex -7.89347 8 -4.62104
      vertex -7.7 8 -4.6
      vertex -10.3 8 -3.4
    endloop
  endfacet
  facet normal 0 -1 0
    outer loop
      vertex -10.3 8 -3.4
      vertex -7.7 8 -4.6
      vertex -7.50653 8 -4.62104
    endloop
  endfacet
  facet normal 0 -1 0
    outer loop
      vertex 6.95508 8 -4.99493
      vertex 7.01405 8 -4.91735
      vertex -7.50653 8 -4.62104
    endloop
  endfacet
  facet normal 0 -1 0
    outer loop
      vertex 7.01405 8 -4.91735
      vertex 7.15534 8 -4.78352
      vertex -7.50653 8 -4.62104
    endloop
  endfacet
  facet normal 0 -1 0
    outer loop
      vertex -7.50653 8 -4.62104
      vertex 7.15534 8 -4.78352
      vertex -10.3 8 -3.4
    endloop
  endfacet
  facet normal 0 -1 0
    outer loop
      vertex 7.15534 8 -4.78352
      vertex 7.3221 8 -4.68318
      vertex -10.3 8 -3.4
    endloop
  endfacet
  facet normal 0 -1 0
    outer loop
      vertex -10.3 8 -3.4
      vertex 7.3221 8 -4.68318
      vertex 7.50653 8 -4.62104
    endloop
  endfacet
  facet normal 0 -1 0
    outer loop
      vertex -8.49516 8 -5.07843
      vertex -8.44492 8 -4.99493
      vertex -10.3 8 -3.4
    endloop
  endfacet
  facet normal 0 -1 0
    outer loop
      vertex -8.44492 8 -4.99493
      vertex -8.38595 8 -4.91735
      vertex -10.3 8 -3.4
    endloop
  endfacet
  facet normal 0 -1 0
    outer loop
      vertex -10.3 8 -3.4
      vertex -8.38595 8 -4.91735
      vertex -8.24466 8 -4.78352
    endloop
  endfacet
  facet normal 0 -1 0
    outer loop
      vertex -7.15534 8 -4.78352
      vertex 6.80132 8 -5.45128
      vertex -7.3221 8 -4.68318
    endloop
  endfacet
  facet normal 0 -1 0
    outer loop
      vertex 6.80132 8 -5.45128
      vertex 6.8328 8 -5.25922
      vertex -7.3221 8 -4.68318
    endloop
  endfacet
  facet normal 0 -1 0
    outer loop
      vertex -7.3221 8 -4.68318
      vertex 6.8328 8 -5.25922
      vertex -7.50653 8 -4.62104
    endloop
  endfacet
  facet normal 0 -1 0
    outer loop
      vertex 6.8328 8 -5.25922
      vertex 6.90484 8 -5.07843
      vertex -7.50653 8 -4.62104
    endloop
  endfacet
  facet normal 0 -1 0
    outer loop
      vertex -7.50653 8 -4.62104
      vertex 6.90484 8 -5.07843
      vertex 6.95508 8 -4.99493
    endloop
  endfacet
  facet normal -0.108118 0 -0.994138
    outer loop
      vertex -7.7 9.75 -12.6
      vertex -7.7 13.5 -12.6
      vertex -7.50653 9.75 -12.621
    endloop
  endfacet
  facet normal -0.108118 0 -0.994138
    outer loop
      vertex -7.7 13.5 -12.6
      vertex -7.50653 13.5 -12.621
      vertex -7.50653 9.75 -12.621
    endloop
  endfacet
  facet normal -0.319302 0 -0.947653
    outer loop
      vertex -7.50653 9.75 -12.621
      vertex -7.50653 13.5 -12.621
      vertex -7.3221 9.75 -12.6832
    endloop
  endfacet
  facet normal -0.319302 0 -0.947653
    outer loop
      vertex -7.50653 13.5 -12.621
      vertex -7.3221 13.5 -12.6832
      vertex -7.3221 9.75 -12.6832
    endloop
  endfacet
  facet normal -0.515554 0 -0.856857
    outer loop
      vertex -7.3221 9.75 -12.6832
      vertex -7.3221 13.5 -12.6832
      vertex -7.15534 9.75 -12.7835
    endloop
  endfacet
  facet normal -0.515554 0 -0.856857
    outer loop
      vertex -7.3221 13.5 -12.6832
      vertex -7.15534 13.5 -12.7835
      vertex -7.15534 9.75 -12.7835
    endloop
  endfacet
  facet normal -0.687698 0 -0.725997
    outer loop
      vertex -7.15534 9.75 -12.7835
      vertex -7.15534 13.5 -12.7835
      vertex -7.01405 9.75 -12.9174
    endloop
  endfacet
  facet normal -0.687698 0 -0.725997
    outer loop
      vertex -7.15534 13.5 -12.7835
      vertex -7.01405 13.5 -12.9174
      vertex -7.01405 9.75 -12.9174
    endloop
  endfacet
  facet normal -0.827689 0 -0.561187
    outer loop
      vertex -7.01405 9.75 -12.9174
      vertex -7.01405 13.5 -12.9174
      vertex -6.90484 9.75 -13.0784
    endloop
  endfacet
  facet normal -0.827689 0 -0.561187
    outer loop
      vertex -7.01405 13.5 -12.9174
      vertex -6.90484 13.5 -13.0784
      vertex -6.90484 9.75 -13.0784
    endloop
  endfacet
  facet normal -0.928977 0 -0.370138
    outer loop
      vertex -6.90484 9.75 -13.0784
      vertex -6.90484 13.5 -13.0784
      vertex -6.8328 9.75 -13.2592
    endloop
  endfacet
  facet normal -0.928977 0 -0.370138
    outer loop
      vertex -6.90484 13.5 -13.0784
      vertex -6.8328 13.5 -13.2592
      vertex -6.8328 9.75 -13.2592
    endloop
  endfacet
  facet normal -0.986826 0 -0.161782
    outer loop
      vertex -6.8328 9.75 -13.2592
      vertex -6.8328 13.5 -13.2592
      vertex -6.80132 9.75 -13.4513
    endloop
  endfacet
  facet normal -0.986826 0 -0.161782
    outer loop
      vertex -6.8328 13.5 -13.2592
      vertex -6.80132 13.5 -13.4513
      vertex -6.80132 9.75 -13.4513
    endloop
  endfacet
  facet normal -0.998533 0 0.0541405
    outer loop
      vertex -6.80132 9.75 -13.4513
      vertex -6.80132 13.5 -13.4513
      vertex -6.81186 9.75 -13.6456
    endloop
  endfacet
  facet normal -0.998533 0 0.0541405
    outer loop
      vertex -6.80132 13.5 -13.4513
      vertex -6.81186 13.5 -13.6456
      vertex -6.81186 9.75 -13.6456
    endloop
  endfacet
  facet normal -0.96355 0 0.267528
    outer loop
      vertex -6.81186 9.75 -13.6456
      vertex -6.81186 13.5 -13.6456
      vertex -6.86392 9.75 -13.8331
    endloop
  endfacet
  facet normal -0.96355 0 0.267528
    outer loop
      vertex -6.81186 13.5 -13.6456
      vertex -6.86392 13.5 -13.8331
      vertex -6.86392 9.75 -13.8331
    endloop
  endfacet
  facet normal -0.883513 0 0.468407
    outer loop
      vertex -6.86392 9.75 -13.8331
      vertex -6.86392 13.5 -13.8331
      vertex -6.95508 9.75 -14.0051
    endloop
  endfacet
  facet normal -0.883513 0 0.468407
    outer loop
      vertex -6.86392 13.5 -13.8331
      vertex -6.95508 13.5 -14.0051
      vertex -6.95508 9.75 -14.0051
    endloop
  endfacet
  facet normal -0.796091 0 0.605177
    outer loop
      vertex -6.95508 9.75 -14.0051
      vertex -6.95508 13.5 -14.0051
      vertex -7.01405 9.75 -14.0826
    endloop
  endfacet
  facet normal -0.796091 0 0.605177
    outer loop
      vertex -6.95508 13.5 -14.0051
      vertex -7.01405 13.5 -14.0826
      vertex -7.01405 9.75 -14.0826
    endloop
  endfacet
  facet normal -0.687698 0 0.725997
    outer loop
      vertex -7.01405 9.75 -14.0826
      vertex -7.01405 13.5 -14.0826
      vertex -7.15534 9.75 -14.2165
    endloop
  endfacet
  facet normal -0.687698 0 0.725997
    outer loop
      vertex -7.01405 13.5 -14.0826
      vertex -7.15534 13.5 -14.2165
      vertex -7.15534 9.75 -14.2165
    endloop
  endfacet
  facet normal -0.515554 0 0.856857
    outer loop
      vertex -7.15534 9.75 -14.2165
      vertex -7.15534 13.5 -14.2165
      vertex -7.3221 9.75 -14.3168
    endloop
  endfacet
  facet normal -0.515554 0 0.856857
    outer loop
      vertex -7.15534 13.5 -14.2165
      vertex -7.3221 13.5 -14.3168
      vertex -7.3221 9.75 -14.3168
    endloop
  endfacet
  facet normal -0.319302 0 0.947653
    outer loop
      vertex -7.3221 9.75 -14.3168
      vertex -7.3221 13.5 -14.3168
      vertex -7.50653 9.75 -14.379
    endloop
  endfacet
  facet normal -0.319302 0 0.947653
    outer loop
      vertex -7.3221 13.5 -14.3168
      vertex -7.50653 13.5 -14.379
      vertex -7.50653 9.75 -14.379
    endloop
  endfacet
  facet normal -0.108118 0 0.994138
    outer loop
      vertex -7.50653 9.75 -14.379
      vertex -7.50653 13.5 -14.379
      vertex -7.7 9.75 -14.4
    endloop
  endfacet
  facet normal -0.108118 0 0.994138
    outer loop
      vertex -7.50653 13.5 -14.379
      vertex -7.7 13.5 -14.4
      vertex -7.7 9.75 -14.4
    endloop
  endfacet
  facet normal 0.108118 0 0.994138
    outer loop
      vertex -7.7 9.75 -14.4
      vertex -7.7 13.5 -14.4
      vertex -7.89347 9.75 -14.379
    endloop
  endfacet
  facet normal 0.108118 0 0.994138
    outer loop
      vertex -7.7 13.5 -14.4
      vertex -7.89347 13.5 -14.379
      vertex -7.89347 9.75 -14.379
    endloop
  endfacet
  facet normal 0.319303 0 0.947653
    outer loop
      vertex -7.89347 9.75 -14.379
      vertex -7.89347 13.5 -14.379
      vertex -8.0779 9.75 -14.3168
    endloop
  endfacet
  facet normal 0.319303 0 0.947653
    outer loop
      vertex -7.89347 13.5 -14.379
      vertex -8.0779 13.5 -14.3168
      vertex -8.0779 9.75 -14.3168
    endloop
  endfacet
  facet normal 0.515553 0 0.856858
    outer loop
      vertex -8.0779 9.75 -14.3168
      vertex -8.0779 13.5 -14.3168
      vertex -8.24466 9.75 -14.2165
    endloop
  endfacet
  facet normal 0.515553 0 0.856858
    outer loop
      vertex -8.0779 13.5 -14.3168
      vertex -8.24466 13.5 -14.2165
      vertex -8.24466 9.75 -14.2165
    endloop
  endfacet
  facet normal 0.687698 0 0.725997
    outer loop
      vertex -8.24466 9.75 -14.2165
      vertex -8.24466 13.5 -14.2165
      vertex -8.38595 9.75 -14.0826
    endloop
  endfacet
  facet normal 0.687698 0 0.725997
    outer loop
      vertex -8.24466 13.5 -14.2165
      vertex -8.38595 13.5 -14.0826
      vertex -8.38595 9.75 -14.0826
    endloop
  endfacet
  facet normal 0.796093 0 0.605174
    outer loop
      vertex -8.38595 9.75 -14.0826
      vertex -8.38595 13.5 -14.0826
      vertex -8.44492 9.75 -14.0051
    endloop
  endfacet
  facet normal 0.796093 0 0.605174
    outer loop
      vertex -8.38595 13.5 -14.0826
      vertex -8.44492 13.5 -14.0051
      vertex -8.44492 9.75 -14.0051
    endloop
  endfacet
  facet normal 0.856862 0 0.515547
    outer loop
      vertex -8.44492 9.75 -14.0051
      vertex -8.44492 13.5 -14.0051
      vertex -8.49516 9.75 -13.9216
    endloop
  endfacet
  facet normal 0.856862 0 0.515547
    outer loop
      vertex -8.44492 13.5 -14.0051
      vertex -8.49516 13.5 -13.9216
      vertex -8.49516 9.75 -13.9216
    endloop
  endfacet
  facet normal 0.928975 0 0.370142
    outer loop
      vertex -8.49516 9.75 -13.9216
      vertex -8.49516 13.5 -13.9216
      vertex -8.5672 9.75 -13.7408
    endloop
  endfacet
  facet normal 0.928975 0 0.370142
    outer loop
      vertex -8.49516 13.5 -13.9216
      vertex -8.5672 13.5 -13.7408
      vertex -8.5672 9.75 -13.7408
    endloop
  endfacet
  facet normal 0.986827 0 0.161779
    outer loop
      vertex -8.5672 9.75 -13.7408
      vertex -8.5672 13.5 -13.7408
      vertex -8.59868 9.75 -13.5487
    endloop
  endfacet
  facet normal 0.986827 0 0.161779
    outer loop
      vertex -8.5672 13.5 -13.7408
      vertex -8.59868 13.5 -13.5487
      vertex -8.59868 9.75 -13.5487
    endloop
  endfacet
  facet normal 0.998533 0 -0.0541381
    outer loop
      vertex -8.59868 9.75 -13.5487
      vertex -8.59868 13.5 -13.5487
      vertex -8.58814 9.75 -13.3544
    endloop
  endfacet
  facet normal 0.998533 0 -0.0541381
    outer loop
      vertex -8.59868 13.5 -13.5487
      vertex -8.58814 13.5 -13.3544
      vertex -8.58814 9.75 -13.3544
    endloop
  endfacet
  facet normal 0.96355 0 -0.267527
    outer loop
      vertex -8.58814 9.75 -13.3544
      vertex -8.58814 13.5 -13.3544
      vertex -8.53608 9.75 -13.1669
    endloop
  endfacet
  facet normal 0.96355 0 -0.267527
    outer loop
      vertex -8.58814 13.5 -13.3544
      vertex -8.53608 13.5 -13.1669
      vertex -8.53608 9.75 -13.1669
    endloop
  endfacet
  facet normal 0.883512 0 -0.468409
    outer loop
      vertex -8.53608 9.75 -13.1669
      vertex -8.53608 13.5 -13.1669
      vertex -8.44492 9.75 -12.9949
    endloop
  endfacet
  facet normal 0.883512 0 -0.468409
    outer loop
      vertex -8.53608 13.5 -13.1669
      vertex -8.44492 13.5 -12.9949
      vertex -8.44492 9.75 -12.9949
    endloop
  endfacet
  facet normal 0.762164 0 -0.647384
    outer loop
      vertex -8.44492 9.75 -12.9949
      vertex -8.44492 13.5 -12.9949
      vertex -8.31893 9.75 -12.8466
    endloop
  endfacet
  facet normal 0.762164 0 -0.647384
    outer loop
      vertex -8.44492 13.5 -12.9949
      vertex -8.31893 13.5 -12.8466
      vertex -8.31893 9.75 -12.8466
    endloop
  endfacet
  facet normal 0.605173 0 -0.796094
    outer loop
      vertex -8.31893 9.75 -12.8466
      vertex -8.31893 13.5 -12.8466
      vertex -8.164 9.75 -12.7288
    endloop
  endfacet
  facet normal 0.605173 0 -0.796094
    outer loop
      vertex -8.31893 13.5 -12.8466
      vertex -8.164 13.5 -12.7288
      vertex -8.164 9.75 -12.7288
    endloop
  endfacet
  facet normal 0.419892 0 -0.907574
    outer loop
      vertex -8.164 9.75 -12.7288
      vertex -8.164 13.5 -12.7288
      vertex -7.98737 9.75 -12.6471
    endloop
  endfacet
  facet normal 0.419892 0 -0.907574
    outer loop
      vertex -8.164 13.5 -12.7288
      vertex -7.98737 13.5 -12.6471
      vertex -7.98737 9.75 -12.6471
    endloop
  endfacet
  facet normal 0.214969 0 -0.976621
    outer loop
      vertex -7.98737 9.75 -12.6471
      vertex -7.98737 13.5 -12.6471
      vertex -7.79731 9.75 -12.6053
    endloop
  endfacet
  facet normal 0.214969 0 -0.976621
    outer loop
      vertex -7.98737 13.5 -12.6471
      vertex -7.79731 13.5 -12.6053
      vertex -7.79731 9.75 -12.6053
    endloop
  endfacet
  facet normal 0.0541398 0 -0.998533
    outer loop
      vertex -7.79731 9.75 -12.6053
      vertex -7.79731 13.5 -12.6053
      vertex -7.7 9.75 -12.6
    endloop
  endfacet
  facet normal 0.0541398 0 -0.998533
    outer loop
      vertex -7.79731 13.5 -12.6053
      vertex -7.7 13.5 -12.6
      vertex -7.7 9.75 -12.6
    endloop
  endfacet
  facet normal 0 1 0
    outer loop
      vertex -7.50653 13.5 -12.621
      vertex -7.7 13.5 -12.6
      vertex -10.3 13.5 -7.7
    endloop
  endfacet
  facet normal 0 1 0
    outer loop
      vertex 8.38595 13.5 -12.9174
      vertex 8.24466 13.5 -12.7835
      vertex 10.3 13.5 -7.7
    endloop
  endfacet
  facet normal 0 1 0
    outer loop
      vertex 6.95508 13.5 -12.9949
      vertex 6.86392 13.5 -13.1669
      vertex -10.3 13.5 -7.7
    endloop
  endfacet
  facet normal 0 1 0
    outer loop
      vertex 7.01405 13.5 -14.0826
      vertex 7.15534 13.5 -14.2165
      vertex -10.3 13.5 -16.2
    endloop
  endfacet
  facet normal 0 1 0
    outer loop
      vertex 8.38595 13.5 -12.9174
      vertex 10.3 13.5 -7.7
      vertex 8.49516 13.5 -13.0784
    endloop
  endfacet
  facet normal 0 1 0
    outer loop
      vertex 8.24466 13.5 -12.7835
      vertex 8.0779 13.5 -12.6832
      vertex 10.3 13.5 -7.7
    endloop
  endfacet
  facet normal 0 1 0
    outer loop
      vertex 8.0779 13.5 -12.6832
      vertex 7.89347 13.5 -12.621
      vertex 10.3 13.5 -7.7
    endloop
  endfacet
  facet normal 0 1 0
    outer loop
      vertex 10.3 13.5 -7.7
      vertex 7.89347 13.5 -12.621
      vertex 7.7 13.5 -12.6
    endloop
  endfacet
  facet normal 0 1 0
    outer loop
      vertex 6.95508 13.5 -12.9949
      vertex -10.3 13.5 -7.7
      vertex 7.08107 13.5 -12.8466
    endloop
  endfacet
  facet normal 0 1 0
    outer loop
      vertex -6.90484 13.5 -13.0784
      vertex -7.01405 13.5 -12.9174
      vertex 6.86392 13.5 -13.1669
    endloop
  endfacet
  facet normal 0 1 0
    outer loop
      vertex -7.01405 13.5 -12.9174
      vertex -7.15534 13.5 -12.7835
      vertex 6.86392 13.5 -13.1669
    endloop
  endfacet
  facet normal 0 1 0
    outer loop
      vertex 6.86392 13.5 -13.1669
      vertex -7.15534 13.5 -12.7835
      vertex -10.3 13.5 -7.7
    endloop
  endfacet
  facet normal 0 1 0
    outer loop
      vertex -7.15534 13.5 -12.7835
      vertex -7.3221 13.5 -12.6832
      vertex -10.3 13.5 -7.7
    endloop
  endfacet
  facet normal 0 1 0
    outer loop
      vertex -10.3 13.5 -7.7
      vertex -7.3221 13.5 -12.6832
      vertex -7.50653 13.5 -12.621
    endloop
  endfacet
  facet normal 0 1 0
    outer loop
      vertex -7.7 13.5 -12.6
      vertex -7.79731 13.5 -12.6053
      vertex -10.3 13.5 -7.7
    endloop
  endfacet
  facet normal 0 1 0
    outer loop
      vertex -7.79731 13.5 -12.6053
      vertex -7.98737 13.5 -12.6471
      vertex -10.3 13.5 -7.7
    endloop
  endfacet
  facet normal 0 1 0
    outer loop
      vertex -10.3 13.5 -7.7
      vertex -7.98737 13.5 -12.6471
      vertex -8.164 13.5 -12.7288
    endloop
  endfacet
  facet normal 0 1 0
    outer loop
      vertex -10.3 13.5 -7.7
      vertex -8.53608 13.5 -13.1669
      vertex -8.58814 13.5 -13.3544
    endloop
  endfacet
  facet normal 0 1 0
    outer loop
      vertex -10.3 13.5 -16.2
      vertex -8.24466 13.5 -14.2165
      vertex -8.0779 13.5 -14.3168
    endloop
  endfacet
  facet normal 0 1 0
    outer loop
      vertex -8.0779 13.5 -14.3168
      vertex -7.89347 13.5 -14.379
      vertex -10.3 13.5 -16.2
    endloop
  endfacet
  facet normal 0 1 0
    outer loop
      vertex -7.89347 13.5 -14.379
      vertex -7.7 13.5 -14.4
      vertex -10.3 13.5 -16.2
    endloop
  endfacet
  facet normal 0 1 0
    outer loop
      vertex -10.3 13.5 -16.2
      vertex -7.7 13.5 -14.4
      vertex -7.50653 13.5 -14.379
    endloop
  endfacet
  facet normal 0 1 0
    outer loop
      vertex 8.24466 13.5 -14.2165
      vertex 10.3 13.5 -16.2
      vertex 8.0779 13.5 -14.3168
    endloop
  endfacet
  facet normal 0 1 0
    outer loop
      vertex 10.3 13.5 -16.2
      vertex 7.89347 13.5 -14.379
      vertex 8.0779 13.5 -14.3168
    endloop
  endfacet
  facet normal 0 1 0
    outer loop
      vertex 8.53608 13.5 -13.8331
      vertex 8.58814 13.5 -13.6456
      vertex 10.3 13.5 -16.2
    endloop
  endfacet
  facet normal 0 1 0
    outer loop
      vertex 8.58814 13.5 -13.6456
      vertex 8.59868 13.5 -13.4513
      vertex 10.3 13.5 -16.2
    endloop
  endfacet
  facet normal 0 1 0
    outer loop
      vertex 10.3 13.5 -16.2
      vertex 8.59868 13.5 -13.4513
      vertex 10.3 13.5 -7.7
    endloop
  endfacet
  facet normal 0 1 0
    outer loop
      vertex 8.59868 13.5 -13.4513
      vertex 8.5672 13.5 -13.2592
      vertex 10.3 13.5 -7.7
    endloop
  endfacet
  facet normal 0 1 0
    outer loop
      vertex 10.3 13.5 -7.7
      vertex 8.5672 13.5 -13.2592
      vertex 8.49516 13.5 -13.0784
    endloop
  endfacet
  facet normal 0 1 0
    outer loop
      vertex 7.7 13.5 -12.6
      vertex 7.60269 13.5 -12.6053
      vertex 10.3 13.5 -7.7
    endloop
  endfacet
  facet normal 0 1 0
    outer loop
      vertex 7.60269 13.5 -12.6053
      vertex 7.41263 13.5 -12.6471
      vertex 10.3 13.5 -7.7
    endloop
  endfacet
  facet normal 0 1 0
    outer loop
      vertex 10.3 13.5 -7.7
      vertex 7.41263 13.5 -12.6471
      vertex -10.3 13.5 -7.7
    endloop
  endfacet
  facet normal 0 1 0
    outer loop
      vertex 7.41263 13.5 -12.6471
      vertex 7.236 13.5 -12.7288
      vertex -10.3 13.5 -7.7
    endloop
  endfacet
  facet normal 0 1 0
    outer loop
      vertex -10.3 13.5 -7.7
      vertex 7.236 13.5 -12.7288
      vertex 7.08107 13.5 -12.8466
    endloop
  endfacet
  facet normal 0 1 0
    outer loop
      vertex -10.3 13.5 -7.7
      vertex -8.58814 13.5 -13.3544
      vertex -10.3 13.5 -16.2
    endloop
  endfacet
  facet normal 0 1 0
    outer loop
      vertex -8.58814 13.5 -13.3544
      vertex -8.59868 13.5 -13.5487
      vertex -10.3 13.5 -16.2
    endloop
  endfacet
  facet normal 0 1 0
    outer loop
      vertex -8.59868 13.5 -13.5487
      vertex -8.5672 13.5 -13.7408
      vertex -10.3 13.5 -16.2
    endloop
  endfacet
  facet normal 0 1 0
    outer loop
      vertex -10.3 13.5 -16.2
      vertex -8.5672 13.5 -13.7408
      vertex -8.49516 13.5 -13.9216
    endloop
  endfacet
  facet normal 0 1 0
    outer loop
      vertex 7.01405 13.5 -14.0826
      vertex -10.3 13.5 -16.2
      vertex 6.95508 13.5 -14.0051
    endloop
  endfacet
  facet normal 0 1 0
    outer loop
      vertex 8.24466 13.5 -14.2165
      vertex 8.38595 13.5 -14.0826
      vertex 10.3 13.5 -16.2
    endloop
  endfacet
  facet normal 0 1 0
    outer loop
      vertex 8.38595 13.5 -14.0826
      vertex 8.44492 13.5 -14.0051
      vertex 10.3 13.5 -16.2
    endloop
  endfacet
  facet normal 0 1 0
    outer loop
      vertex 10.3 13.5 -16.2
      vertex 8.44492 13.5 -14.0051
      vertex 8.53608 13.5 -13.8331
    endloop
  endfacet
  facet normal 0 1 0
    outer loop
      vertex -7.15534 13.5 -14.2165
      vertex -7.01405 13.5 -14.0826
      vertex 6.80132 13.5 -13.5487
    endloop
  endfacet
  facet normal 0 1 0
    outer loop
      vertex -7.01405 13.5 -14.0826
      vertex -6.95508 13.5 -14.0051
      vertex 6.80132 13.5 -13.5487
    endloop
  endfacet
  facet normal 0 1 0
    outer loop
      vertex -6.95508 13.5 -14.0051
      vertex -6.86392 13.5 -13.8331
      vertex 6.80132 13.5 -13.5487
    endloop
  endfacet
  facet normal 0 1 0
    outer loop
      vertex -6.86392 13.5 -13.8331
      vertex -6.81186 13.5 -13.6456
      vertex 6.80132 13.5 -13.5487
    endloop
  endfacet
  facet normal 0 1 0
    outer loop
      vertex 6.80132 13.5 -13.5487
      vertex -6.81186 13.5 -13.6456
      vertex 6.81186 13.5 -13.3544
    endloop
  endfacet
  facet normal 0 1 0
    outer loop
      vertex -6.81186 13.5 -13.6456
      vertex -6.80132 13.5 -13.4513
      vertex 6.81186 13.5 -13.3544
    endloop
  endfacet
  facet normal 0 1 0
    outer loop
      vertex 6.81186 13.5 -13.3544
      vertex -6.80132 13.5 -13.4513
      vertex 6.86392 13.5 -13.1669
    endloop
  endfacet
  facet normal 0 1 0
    outer loop
      vertex -6.80132 13.5 -13.4513
      vertex -6.8328 13.5 -13.2592
      vertex 6.86392 13.5 -13.1669
    endloop
  endfacet
  facet normal 0 1 0
    outer loop
      vertex 6.86392 13.5 -13.1669
      vertex -6.8328 13.5 -13.2592
      vertex -6.90484 13.5 -13.0784
    endloop
  endfacet
  facet normal 0 1 0
    outer loop
      vertex -8.164 13.5 -12.7288
      vertex -8.31893 13.5 -12.8466
      vertex -10.3 13.5 -7.7
    endloop
  endfacet
  facet normal 0 1 0
    outer loop
      vertex -8.31893 13.5 -12.8466
      vertex -8.44492 13.5 -12.9949
      vertex -10.3 13.5 -7.7
    endloop
  endfacet
  facet normal 0 1 0
    outer loop
      vertex -10.3 13.5 -7.7
      vertex -8.44492 13.5 -12.9949
      vertex -8.53608 13.5 -13.1669
    endloop
  endfacet
  facet normal 0 1 0
    outer loop
      vertex -7.15534 13.5 -14.2165
      vertex 6.80132 13.5 -13.5487
      vertex -7.3221 13.5 -14.3168
    endloop
  endfacet
  facet normal 0 1 0
    outer loop
      vertex 6.80132 13.5 -13.5487
      vertex 6.8328 13.5 -13.7408
      vertex -7.3221 13.5 -14.3168
    endloop
  endfacet
  facet normal 0 1 0
    outer loop
      vertex -7.3221 13.5 -14.3168
      vertex 6.8328 13.5 -13.7408
      vertex -7.50653 13.5 -14.379
    endloop
  endfacet
  facet normal 0 1 0
    outer loop
      vertex -7.50653 13.5 -14.379
      vertex 6.8328 13.5 -13.7408
      vertex -10.3 13.5 -16.2
    endloop
  endfacet
  facet normal 0 1 0
    outer loop
      vertex 6.8328 13.5 -13.7408
      vertex 6.90484 13.5 -13.9216
      vertex -10.3 13.5 -16.2
    endloop
  endfacet
  facet normal 0 1 0
    outer loop
      vertex -10.3 13.5 -16.2
      vertex 6.90484 13.5 -13.9216
      vertex 6.95508 13.5 -14.0051
    endloop
  endfacet
  facet normal 0 1 0
    outer loop
      vertex 7.15534 13.5 -14.2165
      vertex 7.3221 13.5 -14.3168
      vertex -10.3 13.5 -16.2
    endloop
  endfacet
  facet normal 0 1 0
    outer loop
      vertex 7.3221 13.5 -14.3168
      vertex 7.50653 13.5 -14.379
      vertex -10.3 13.5 -16.2
    endloop
  endfacet
  facet normal 0 1 0
    outer loop
      vertex -10.3 13.5 -16.2
      vertex 7.50653 13.5 -14.379
      vertex 10.3 13.5 -16.2
    endloop
  endfacet
  facet normal 0 1 0
    outer loop
      vertex 7.50653 13.5 -14.379
      vertex 7.7 13.5 -14.4
      vertex 10.3 13.5 -16.2
    endloop
  endfacet
  facet normal 0 1 0
    outer loop
      vertex 10.3 13.5 -16.2
      vertex 7.7 13.5 -14.4
      vertex 7.89347 13.5 -14.379
    endloop
  endfacet
  facet normal 0 1 0
    outer loop
      vertex -8.49516 13.5 -13.9216
      vertex -8.44492 13.5 -14.0051
      vertex -10.3 13.5 -16.2
    endloop
  endfacet
  facet normal 0 1 0
    outer loop
      vertex -8.44492 13.5 -14.0051
      vertex -8.38595 13.5 -14.0826
      vertex -10.3 13.5 -16.2
    endloop
  endfacet
  facet normal 0 1 0
    outer loop
      vertex -10.3 13.5 -16.2
      vertex -8.38595 13.5 -14.0826
      vertex -8.24466 13.5 -14.2165
    endloop
  endfacet
  facet normal -0.108118 0 0.994138
    outer loop
      vertex -7.7 9.5 -6.4
      vertex -7.7 8 -6.4
      vertex -7.50653 9.5 -6.37896
    endloop
  endfacet
  facet normal -0.108118 0 0.994138
    outer loop
      vertex -7.7 8 -6.4
      vertex -7.50653 8 -6.37896
      vertex -7.50653 9.5 -6.37896
    endloop
  endfacet
  facet normal -0.319302 0 0.947653
    outer loop
      vertex -7.50653 9.5 -6.37896
      vertex -7.50653 8 -6.37896
      vertex -7.3221 9.5 -6.31682
    endloop
  endfacet
  facet normal -0.319302 0 0.947653
    outer loop
      vertex -7.50653 8 -6.37896
      vertex -7.3221 8 -6.31682
      vertex -7.3221 9.5 -6.31682
    endloop
  endfacet
  facet normal -0.515554 0 0.856857
    outer loop
      vertex -7.3221 9.5 -6.31682
      vertex -7.3221 8 -6.31682
      vertex -7.15534 9.5 -6.21648
    endloop
  endfacet
  facet normal -0.515554 0 0.856857
    outer loop
      vertex -7.3221 8 -6.31682
      vertex -7.15534 8 -6.21648
      vertex -7.15534 9.5 -6.21648
    endloop
  endfacet
  facet normal -0.6877 0 0.725995
    outer loop
      vertex -7.15534 9.5 -6.21648
      vertex -7.15534 8 -6.21648
      vertex -7.01405 9.5 -6.08265
    endloop
  endfacet
  facet normal -0.6877 0 0.725995
    outer loop
      vertex -7.15534 8 -6.21648
      vertex -7.01405 8 -6.08265
      vertex -7.01405 9.5 -6.08265
    endloop
  endfacet
  facet normal -0.827688 0 0.561189
    outer loop
      vertex -7.01405 9.5 -6.08265
      vertex -7.01405 8 -6.08265
      vertex -6.90484 9.5 -5.92157
    endloop
  endfacet
  facet normal -0.827688 0 0.561189
    outer loop
      vertex -7.01405 8 -6.08265
      vertex -6.90484 8 -5.92157
      vertex -6.90484 9.5 -5.92157
    endloop
  endfacet
  facet normal -0.928977 0 0.370138
    outer loop
      vertex -6.90484 9.5 -5.92157
      vertex -6.90484 8 -5.92157
      vertex -6.8328 9.5 -5.74078
    endloop
  endfacet
  facet normal -0.928977 0 0.370138
    outer loop
      vertex -6.90484 8 -5.92157
      vertex -6.8328 8 -5.74078
      vertex -6.8328 9.5 -5.74078
    endloop
  endfacet
  facet normal -0.986826 0 0.161782
    outer loop
      vertex -6.8328 9.5 -5.74078
      vertex -6.8328 8 -5.74078
      vertex -6.80132 9.5 -5.54872
    endloop
  endfacet
  facet normal -0.986826 0 0.161782
    outer loop
      vertex -6.8328 8 -5.74078
      vertex -6.80132 8 -5.54872
      vertex -6.80132 9.5 -5.54872
    endloop
  endfacet
  facet normal -0.998533 0 -0.0541405
    outer loop
      vertex -6.80132 9.5 -5.54872
      vertex -6.80132 8 -5.54872
      vertex -6.81186 9.5 -5.3544
    endloop
  endfacet
  facet normal -0.998533 0 -0.0541405
    outer loop
      vertex -6.80132 8 -5.54872
      vertex -6.81186 8 -5.3544
      vertex -6.81186 9.5 -5.3544
    endloop
  endfacet
  facet normal -0.96355 0 -0.267528
    outer loop
      vertex -6.81186 9.5 -5.3544
      vertex -6.81186 8 -5.3544
      vertex -6.86392 9.5 -5.16688
    endloop
  endfacet
  facet normal -0.96355 0 -0.267528
    outer loop
      vertex -6.81186 8 -5.3544
      vertex -6.86392 8 -5.16688
      vertex -6.86392 9.5 -5.16688
    endloop
  endfacet
  facet normal -0.883512 0 -0.468408
    outer loop
      vertex -6.86392 9.5 -5.16688
      vertex -6.86392 8 -5.16688
      vertex -6.95508 9.5 -4.99493
    endloop
  endfacet
  facet normal -0.883512 0 -0.468408
    outer loop
      vertex -6.86392 8 -5.16688
      vertex -6.95508 8 -4.99493
      vertex -6.95508 9.5 -4.99493
    endloop
  endfacet
  facet normal -0.796091 0 -0.605177
    outer loop
      vertex -6.95508 9.5 -4.99493
      vertex -6.95508 8 -4.99493
      vertex -7.01405 9.5 -4.91735
    endloop
  endfacet
  facet normal -0.796091 0 -0.605177
    outer loop
      vertex -6.95508 8 -4.99493
      vertex -7.01405 8 -4.91735
      vertex -7.01405 9.5 -4.91735
    endloop
  endfacet
  facet normal -0.6877 0 -0.725995
    outer loop
      vertex -7.01405 9.5 -4.91735
      vertex -7.01405 8 -4.91735
      vertex -7.15534 9.5 -4.78352
    endloop
  endfacet
  facet normal -0.6877 0 -0.725995
    outer loop
      vertex -7.01405 8 -4.91735
      vertex -7.15534 8 -4.78352
      vertex -7.15534 9.5 -4.78352
    endloop
  endfacet
  facet normal -0.515554 0 -0.856857
    outer loop
      vertex -7.15534 9.5 -4.78352
      vertex -7.15534 8 -4.78352
      vertex -7.3221 9.5 -4.68318
    endloop
  endfacet
  facet normal -0.515554 0 -0.856857
    outer loop
      vertex -7.15534 8 -4.78352
      vertex -7.3221 8 -4.68318
      vertex -7.3221 9.5 -4.68318
    endloop
  endfacet
  facet normal -0.319302 0 -0.947653
    outer loop
      vertex -7.3221 9.5 -4.68318
      vertex -7.3221 8 -4.68318
      vertex -7.50653 9.5 -4.62104
    endloop
  endfacet
  facet normal -0.319302 0 -0.947653
    outer loop
      vertex -7.3221 8 -4.68318
      vertex -7.50653 8 -4.62104
      vertex -7.50653 9.5 -4.62104
    endloop
  endfacet
  facet normal -0.108118 0 -0.994138
    outer loop
      vertex -7.50653 9.5 -4.62104
      vertex -7.50653 8 -4.62104
      vertex -7.7 9.5 -4.6
    endloop
  endfacet
  facet normal -0.108118 0 -0.994138
    outer loop
      vertex -7.50653 8 -4.62104
      vertex -7.7 8 -4.6
      vertex -7.7 9.5 -4.6
    endloop
  endfacet
  facet normal 0.108118 0 -0.994138
    outer loop
      vertex -7.7 9.5 -4.6
      vertex -7.7 8 -4.6
      vertex -7.89347 9.5 -4.62104
    endloop
  endfacet
  facet normal 0.108118 0 -0.994138
    outer loop
      vertex -7.7 8 -4.6
      vertex -7.89347 8 -4.62104
      vertex -7.89347 9.5 -4.62104
    endloop
  endfacet
  facet normal 0.319303 0 -0.947653
    outer loop
      vertex -7.89347 9.5 -4.62104
      vertex -7.89347 8 -4.62104
      vertex -8.0779 9.5 -4.68318
    endloop
  endfacet
  facet normal 0.319303 0 -0.947653
    outer loop
      vertex -7.89347 8 -4.62104
      vertex -8.0779 8 -4.68318
      vertex -8.0779 9.5 -4.68318
    endloop
  endfacet
  facet normal 0.515553 0 -0.856858
    outer loop
      vertex -8.0779 9.5 -4.68318
      vertex -8.0779 8 -4.68318
      vertex -8.24466 9.5 -4.78352
    endloop
  endfacet
  facet normal 0.515553 0 -0.856858
    outer loop
      vertex -8.0779 8 -4.68318
      vertex -8.24466 8 -4.78352
      vertex -8.24466 9.5 -4.78352
    endloop
  endfacet
  facet normal 0.6877 0 -0.725995
    outer loop
      vertex -8.24466 9.5 -4.78352
      vertex -8.24466 8 -4.78352
      vertex -8.38595 9.5 -4.91735
    endloop
  endfacet
  facet normal 0.6877 0 -0.725995
    outer loop
      vertex -8.24466 8 -4.78352
      vertex -8.38595 8 -4.91735
      vertex -8.38595 9.5 -4.91735
    endloop
  endfacet
  facet normal 0.796093 0 -0.605174
    outer loop
      vertex -8.38595 9.5 -4.91735
      vertex -8.38595 8 -4.91735
      vertex -8.44492 9.5 -4.99493
    endloop
  endfacet
  facet normal 0.796093 0 -0.605174
    outer loop
      vertex -8.38595 8 -4.91735
      vertex -8.44492 8 -4.99493
      vertex -8.44492 9.5 -4.99493
    endloop
  endfacet
  facet normal 0.85686 0 -0.515549
    outer loop
      vertex -8.44492 9.5 -4.99493
      vertex -8.44492 8 -4.99493
      vertex -8.49516 9.5 -5.07843
    endloop
  endfacet
  facet normal 0.85686 0 -0.515549
    outer loop
      vertex -8.44492 8 -4.99493
      vertex -8.49516 8 -5.07843
      vertex -8.49516 9.5 -5.07843
    endloop
  endfacet
  facet normal 0.928975 0 -0.370142
    outer loop
      vertex -8.49516 9.5 -5.07843
      vertex -8.49516 8 -5.07843
      vertex -8.5672 9.5 -5.25922
    endloop
  endfacet
  facet normal 0.928975 0 -0.370142
    outer loop
      vertex -8.49516 8 -5.07843
      vertex -8.5672 8 -5.25922
      vertex -8.5672 9.5 -5.25922
    endloop
  endfacet
  facet normal 0.986827 0 -0.161778
    outer loop
      vertex -8.5672 9.5 -5.25922
      vertex -8.5672 8 -5.25922
      vertex -8.59868 9.5 -5.45128
    endloop
  endfacet
  facet normal 0.986827 0 -0.161778
    outer loop
      vertex -8.5672 8 -5.25922
      vertex -8.59868 8 -5.45128
      vertex -8.59868 9.5 -5.45128
    endloop
  endfacet
  facet normal 0.998533 0 0.0541381
    outer loop
      vertex -8.59868 9.5 -5.45128
      vertex -8.59868 8 -5.45128
      vertex -8.58814 9.5 -5.6456
    endloop
  endfacet
  facet normal 0.998533 0 0.0541381
    outer loop
      vertex -8.59868 8 -5.45128
      vertex -8.58814 8 -5.6456
      vertex -8.58814 9.5 -5.6456
    endloop
  endfacet
  facet normal 0.96355 0 0.267528
    outer loop
      vertex -8.58814 9.5 -5.6456
      vertex -8.58814 8 -5.6456
      vertex -8.53608 9.5 -5.83312
    endloop
  endfacet
  facet normal 0.96355 0 0.267528
    outer loop
      vertex -8.58814 8 -5.6456
      vertex -8.53608 8 -5.83312
      vertex -8.53608 9.5 -5.83312
    endloop
  endfacet
  facet normal 0.883512 0 0.468408
    outer loop
      vertex -8.53608 9.5 -5.83312
      vertex -8.53608 8 -5.83312
      vertex -8.44492 9.5 -6.00507
    endloop
  endfacet
  facet normal 0.883512 0 0.468408
    outer loop
      vertex -8.53608 8 -5.83312
      vertex -8.44492 8 -6.00507
      vertex -8.44492 9.5 -6.00507
    endloop
  endfacet
  facet normal 0.762163 0 0.647385
    outer loop
      vertex -8.44492 9.5 -6.00507
      vertex -8.44492 8 -6.00507
      vertex -8.31893 9.5 -6.1534
    endloop
  endfacet
  facet normal 0.762163 0 0.647385
    outer loop
      vertex -8.44492 8 -6.00507
      vertex -8.31893 8 -6.1534
      vertex -8.31893 9.5 -6.1534
    endloop
  endfacet
  facet normal 0.605174 0 0.796093
    outer loop
      vertex -8.31893 9.5 -6.1534
      vertex -8.31893 8 -6.1534
      vertex -8.164 9.5 -6.27117
    endloop
  endfacet
  facet normal 0.605174 0 0.796093
    outer loop
      vertex -8.31893 8 -6.1534
      vertex -8.164 8 -6.27117
      vertex -8.164 9.5 -6.27117
    endloop
  endfacet
  facet normal 0.41989 0 0.907575
    outer loop
      vertex -8.164 9.5 -6.27117
      vertex -8.164 8 -6.27117
      vertex -7.98737 9.5 -6.35289
    endloop
  endfacet
  facet normal 0.41989 0 0.907575
    outer loop
      vertex -8.164 8 -6.27117
      vertex -7.98737 8 -6.35289
      vertex -7.98737 9.5 -6.35289
    endloop
  endfacet
  facet normal 0.214971 0 0.97662
    outer loop
      vertex -7.98737 9.5 -6.35289
      vertex -7.98737 8 -6.35289
      vertex -7.79731 9.5 -6.39472
    endloop
  endfacet
  facet normal 0.214971 0 0.97662
    outer loop
      vertex -7.98737 8 -6.35289
      vertex -7.79731 8 -6.39472
      vertex -7.79731 9.5 -6.39472
    endloop
  endfacet
  facet normal 0.0541351 0 0.998534
    outer loop
      vertex -7.79731 9.5 -6.39472
      vertex -7.79731 8 -6.39472
      vertex -7.7 9.5 -6.4
    endloop
  endfacet
  facet normal 0.0541351 0 0.998534
    outer loop
      vertex -7.79731 8 -6.39472
      vertex -7.7 8 -6.4
      vertex -7.7 9.5 -6.4
    endloop
  endfacet
  facet normal 0 0 1
    outer loop
      vertex -10.3 9.5 -7.7
      vertex 10.3 9.5 -7.7
      vertex -10.3 13.5 -7.7
    endloop
  endfacet
  facet normal 0 0 1
    outer loop
      vertex 10.3 9.5 -7.7
      vertex 10.3 13.5 -7.7
      vertex -10.3 13.5 -7.7
    endloop
  endfacet
  facet normal -0.108118 0 0.994138
    outer loop
      vertex 7.7 9.5 -6.4
      vertex 7.7 8 -6.4
      vertex 7.89347 9.5 -6.37896
    endloop
  endfacet
  facet normal -0.108118 0 0.994138
    outer loop
      vertex 7.7 8 -6.4
      vertex 7.89347 8 -6.37896
      vertex 7.89347 9.5 -6.37896
    endloop
  endfacet
  facet normal -0.319303 0 0.947653
    outer loop
      vertex 7.89347 9.5 -6.37896
      vertex 7.89347 8 -6.37896
      vertex 8.0779 9.5 -6.31682
    endloop
  endfacet
  facet normal -0.319303 0 0.947653
    outer loop
      vertex 7.89347 8 -6.37896
      vertex 8.0779 8 -6.31682
      vertex 8.0779 9.5 -6.31682
    endloop
  endfacet
  facet normal -0.515553 0 0.856858
    outer loop
      vertex 8.0779 9.5 -6.31682
      vertex 8.0779 8 -6.31682
      vertex 8.24466 9.5 -6.21648
    endloop
  endfacet
  facet normal -0.515553 0 0.856858
    outer loop
      vertex 8.0779 8 -6.31682
      vertex 8.24466 8 -6.21648
      vertex 8.24466 9.5 -6.21648
    endloop
  endfacet
  facet normal -0.6877 0 0.725995
    outer loop
      vertex 8.24466 9.5 -6.21648
      vertex 8.24466 8 -6.21648
      vertex 8.38595 9.5 -6.08265
    endloop
  endfacet
  facet normal -0.6877 0 0.725995
    outer loop
      vertex 8.24466 8 -6.21648
      vertex 8.38595 8 -6.08265
      vertex 8.38595 9.5 -6.08265
    endloop
  endfacet
  facet normal -0.82769 0 0.561186
    outer loop
      vertex 8.38595 9.5 -6.08265
      vertex 8.38595 8 -6.08265
      vertex 8.49516 9.5 -5.92157
    endloop
  endfacet
  facet normal -0.82769 0 0.561186
    outer loop
      vertex 8.38595 8 -6.08265
      vertex 8.49516 8 -5.92157
      vertex 8.49516 9.5 -5.92157
    endloop
  endfacet
  facet normal -0.928975 0 0.370142
    outer loop
      vertex 8.49516 9.5 -5.92157
      vertex 8.49516 8 -5.92157
      vertex 8.5672 9.5 -5.74078
    endloop
  endfacet
  facet normal -0.928975 0 0.370142
    outer loop
      vertex 8.49516 8 -5.92157
      vertex 8.5672 8 -5.74078
      vertex 8.5672 9.5 -5.74078
    endloop
  endfacet
  facet normal -0.986827 0 0.161778
    outer loop
      vertex 8.5672 9.5 -5.74078
      vertex 8.5672 8 -5.74078
      vertex 8.59868 9.5 -5.54872
    endloop
  endfacet
  facet normal -0.986827 0 0.161778
    outer loop
      vertex 8.5672 8 -5.74078
      vertex 8.59868 8 -5.54872
      vertex 8.59868 9.5 -5.54872
    endloop
  endfacet
  facet normal -0.998533 0 -0.0541381
    outer loop
      vertex 8.59868 9.5 -5.54872
      vertex 8.59868 8 -5.54872
      vertex 8.58814 9.5 -5.3544
    endloop
  endfacet
  facet normal -0.998533 0 -0.0541381
    outer loop
      vertex 8.59868 8 -5.54872
      vertex 8.58814 8 -5.3544
      vertex 8.58814 9.5 -5.3544
    endloop
  endfacet
  facet normal -0.96355 0 -0.267528
    outer loop
      vertex 8.58814 9.5 -5.3544
      vertex 8.58814 8 -5.3544
      vertex 8.53608 9.5 -5.16688
    endloop
  endfacet
  facet normal -0.96355 0 -0.267528
    outer loop
      vertex 8.58814 8 -5.3544
      vertex 8.53608 8 -5.16688
      vertex 8.53608 9.5 -5.16688
    endloop
  endfacet
  facet normal -0.883512 0 -0.468408
    outer loop
      vertex 8.53608 9.5 -5.16688
      vertex 8.53608 8 -5.16688
      vertex 8.44492 9.5 -4.99493
    endloop
  endfacet
  facet normal -0.883512 0 -0.468408
    outer loop
      vertex 8.53608 8 -5.16688
      vertex 8.44492 8 -4.99493
      vertex 8.44492 9.5 -4.99493
    endloop
  endfacet
  facet normal -0.796093 0 -0.605174
    outer loop
      vertex 8.44492 9.5 -4.99493
      vertex 8.44492 8 -4.99493
      vertex 8.38595 9.5 -4.91735
    endloop
  endfacet
  facet normal -0.796093 0 -0.605174
    outer loop
      vertex 8.44492 8 -4.99493
      vertex 8.38595 8 -4.91735
      vertex 8.38595 9.5 -4.91735
    endloop
  endfacet
  facet normal -0.6877 0 -0.725995
    outer loop
      vertex 8.38595 9.5 -4.91735
      vertex 8.38595 8 -4.91735
      vertex 8.24466 9.5 -4.78352
    endloop
  endfacet
  facet normal -0.6877 0 -0.725995
    outer loop
      vertex 8.38595 8 -4.91735
      vertex 8.24466 8 -4.78352
      vertex 8.24466 9.5 -4.78352
    endloop
  endfacet
  facet normal -0.515553 0 -0.856858
    outer loop
      vertex 8.24466 9.5 -4.78352
      vertex 8.24466 8 -4.78352
      vertex 8.0779 9.5 -4.68318
    endloop
  endfacet
  facet normal -0.515553 0 -0.856858
    outer loop
      vertex 8.24466 8 -4.78352
      vertex 8.0779 8 -4.68318
      vertex 8.0779 9.5 -4.68318
    endloop
  endfacet
  facet normal -0.319303 0 -0.947653
    outer loop
      vertex 8.0779 9.5 -4.68318
      vertex 8.0779 8 -4.68318
      vertex 7.89347 9.5 -4.62104
    endloop
  endfacet
  facet normal -0.319303 0 -0.947653
    outer loop
      vertex 8.0779 8 -4.68318
      vertex 7.89347 8 -4.62104
      vertex 7.89347 9.5 -4.62104
    endloop
  endfacet
  facet normal -0.108118 0 -0.994138
    outer loop
      vertex 7.89347 9.5 -4.62104
      vertex 7.89347 8 -4.62104
      vertex 7.7 9.5 -4.6
    endloop
  endfacet
  facet normal -0.108118 0 -0.994138
    outer loop
      vertex 7.89347 8 -4.62104
      vertex 7.7 8 -4.6
      vertex 7.7 9.5 -4.6
    endloop
  endfacet
  facet normal 0.108118 0 -0.994138
    outer loop
      vertex 7.7 9.5 -4.6
      vertex 7.7 8 -4.6
      vertex 7.50653 9.5 -4.62104
    endloop
  endfacet
  facet normal 0.108118 0 -0.994138
    outer loop
      vertex 7.7 8 -4.6
      vertex 7.50653 8 -4.62104
      vertex 7.50653 9.5 -4.62104
    endloop
  endfacet
  facet normal 0.319302 0 -0.947653
    outer loop
      vertex 7.50653 9.5 -4.62104
      vertex 7.50653 8 -4.62104
      vertex 7.3221 9.5 -4.68318
    endloop
  endfacet
  facet normal 0.319302 0 -0.947653
    outer loop
      vertex 7.50653 8 -4.62104
      vertex 7.3221 8 -4.68318
      vertex 7.3221 9.5 -4.68318
    endloop
  endfacet
  facet normal 0.515554 0 -0.856857
    outer loop
      vertex 7.3221 9.5 -4.68318
      vertex 7.3221 8 -4.68318
      vertex 7.15534 9.5 -4.78352
    endloop
  endfacet
  facet normal 0.515554 0 -0.856857
    outer loop
      vertex 7.3221 8 -4.68318
      vertex 7.15534 8 -4.78352
      vertex 7.15534 9.5 -4.78352
    endloop
  endfacet
  facet normal 0.6877 0 -0.725995
    outer loop
      vertex 7.15534 9.5 -4.78352
      vertex 7.15534 8 -4.78352
      vertex 7.01405 9.5 -4.91735
    endloop
  endfacet
  facet normal 0.6877 0 -0.725995
    outer loop
      vertex 7.15534 8 -4.78352
      vertex 7.01405 8 -4.91735
      vertex 7.01405 9.5 -4.91735
    endloop
  endfacet
  facet normal 0.796091 0 -0.605177
    outer loop
      vertex 7.01405 9.5 -4.91735
      vertex 7.01405 8 -4.91735
      vertex 6.95508 9.5 -4.99493
    endloop
  endfacet
  facet normal 0.796091 0 -0.605177
    outer loop
      vertex 7.01405 8 -4.91735
      vertex 6.95508 8 -4.99493
      vertex 6.95508 9.5 -4.99493
    endloop
  endfacet
  facet normal 0.856858 0 -0.515552
    outer loop
      vertex 6.95508 9.5 -4.99493
      vertex 6.95508 8 -4.99493
      vertex 6.90484 9.5 -5.07843
    endloop
  endfacet
  facet normal 0.856858 0 -0.515552
    outer loop
      vertex 6.95508 8 -4.99493
      vertex 6.90484 8 -5.07843
      vertex 6.90484 9.5 -5.07843
    endloop
  endfacet
  facet normal 0.928977 0 -0.370138
    outer loop
      vertex 6.90484 9.5 -5.07843
      vertex 6.90484 8 -5.07843
      vertex 6.8328 9.5 -5.25922
    endloop
  endfacet
  facet normal 0.928977 0 -0.370138
    outer loop
      vertex 6.90484 8 -5.07843
      vertex 6.8328 8 -5.25922
      vertex 6.8328 9.5 -5.25922
    endloop
  endfacet
  facet normal 0.986826 0 -0.161783
    outer loop
      vertex 6.8328 9.5 -5.25922
      vertex 6.8328 8 -5.25922
      vertex 6.80132 9.5 -5.45128
    endloop
  endfacet
  facet normal 0.986826 0 -0.161783
    outer loop
      vertex 6.8328 8 -5.25922
      vertex 6.80132 8 -5.45128
      vertex 6.80132 9.5 -5.45128
    endloop
  endfacet
  facet normal 0.998533 0 0.0541405
    outer loop
      vertex 6.80132 9.5 -5.45128
      vertex 6.80132 8 -5.45128
      vertex 6.81186 9.5 -5.6456
    endloop
  endfacet
  facet normal 0.998533 0 0.0541405
    outer loop
      vertex 6.80132 8 -5.45128
      vertex 6.81186 8 -5.6456
      vertex 6.81186 9.5 -5.6456
    endloop
  endfacet
  facet normal 0.96355 0 0.267528
    outer loop
      vertex 6.81186 9.5 -5.6456
      vertex 6.81186 8 -5.6456
      vertex 6.86392 9.5 -5.83312
    endloop
  endfacet
  facet normal 0.96355 0 0.267528
    outer loop
      vertex 6.81186 8 -5.6456
      vertex 6.86392 8 -5.83312
      vertex 6.86392 9.5 -5.83312
    endloop
  endfacet
  facet normal 0.883512 0 0.468408
    outer loop
      vertex 6.86392 9.5 -5.83312
      vertex 6.86392 8 -5.83312
      vertex 6.95508 9.5 -6.00507
    endloop
  endfacet
  facet normal 0.883512 0 0.468408
    outer loop
      vertex 6.86392 8 -5.83312
      vertex 6.95508 8 -6.00507
      vertex 6.95508 9.5 -6.00507
    endloop
  endfacet
  facet normal 0.762162 0 0.647387
    outer loop
      vertex 6.95508 9.5 -6.00507
      vertex 6.95508 8 -6.00507
      vertex 7.08107 9.5 -6.1534
    endloop
  endfacet
  facet normal 0.762162 0 0.647387
    outer loop
      vertex 6.95508 8 -6.00507
      vertex 7.08107 8 -6.1534
      vertex 7.08107 9.5 -6.1534
    endloop
  endfacet
  facet normal 0.605174 0 0.796093
    outer loop
      vertex 7.08107 9.5 -6.1534
      vertex 7.08107 8 -6.1534
      vertex 7.236 9.5 -6.27117
    endloop
  endfacet
  facet normal 0.605174 0 0.796093
    outer loop
      vertex 7.08107 8 -6.1534
      vertex 7.236 8 -6.27117
      vertex 7.236 9.5 -6.27117
    endloop
  endfacet
  facet normal 0.41989 0 0.907575
    outer loop
      vertex 7.236 9.5 -6.27117
      vertex 7.236 8 -6.27117
      vertex 7.41263 9.5 -6.35289
    endloop
  endfacet
  facet normal 0.41989 0 0.907575
    outer loop
      vertex 7.236 8 -6.27117
      vertex 7.41263 8 -6.35289
      vertex 7.41263 9.5 -6.35289
    endloop
  endfacet
  facet normal 0.214971 0 0.97662
    outer loop
      vertex 7.41263 9.5 -6.35289
      vertex 7.41263 8 -6.35289
      vertex 7.60269 9.5 -6.39472
    endloop
  endfacet
  facet normal 0.214971 0 0.97662
    outer loop
      vertex 7.41263 8 -6.35289
      vertex 7.60269 8 -6.39472
      vertex 7.60269 9.5 -6.39472
    endloop
  endfacet
  facet normal 0.0541353 0 0.998534
    outer loop
      vertex 7.60269 9.5 -6.39472
      vertex 7.60269 8 -6.39472
      vertex 7.7 9.5 -6.4
    endloop
  endfacet
  facet normal 0.0541353 0 0.998534
    outer loop
      vertex 7.60269 8 -6.39472
      vertex 7.7 8 -6.4
      vertex 7.7 9.5 -6.4
    endloop
  endfacet
  facet normal -0.108118 0 -0.994138
    outer loop
      vertex 7.7 9.75 -12.6
      vertex 7.7 13.5 -12.6
      vertex 7.89347 9.75 -12.621
    endloop
  endfacet
  facet normal -0.108118 0 -0.994138
    outer loop
      vertex 7.7 13.5 -12.6
      vertex 7.89347 13.5 -12.621
      vertex 7.89347 9.75 -12.621
    endloop
  endfacet
  facet normal -0.319303 0 -0.947653
    outer loop
      vertex 7.89347 9.75 -12.621
      vertex 7.89347 13.5 -12.621
      vertex 8.0779 9.75 -12.6832
    endloop
  endfacet
  facet normal -0.319303 0 -0.947653
    outer loop
      vertex 7.89347 13.5 -12.621
      vertex 8.0779 13.5 -12.6832
      vertex 8.0779 9.75 -12.6832
    endloop
  endfacet
  facet normal -0.515553 0 -0.856858
    outer loop
      vertex 8.0779 9.75 -12.6832
      vertex 8.0779 13.5 -12.6832
      vertex 8.24466 9.75 -12.7835
    endloop
  endfacet
  facet normal -0.515553 0 -0.856858
    outer loop
      vertex 8.0779 13.5 -12.6832
      vertex 8.24466 13.5 -12.7835
      vertex 8.24466 9.75 -12.7835
    endloop
  endfacet
  facet normal -0.687698 0 -0.725997
    outer loop
      vertex 8.24466 9.75 -12.7835
      vertex 8.24466 13.5 -12.7835
      vertex 8.38595 9.75 -12.9174
    endloop
  endfacet
  facet normal -0.687698 0 -0.725997
    outer loop
      vertex 8.24466 13.5 -12.7835
      vertex 8.38595 13.5 -12.9174
      vertex 8.38595 9.75 -12.9174
    endloop
  endfacet
  facet normal -0.827691 0 -0.561183
    outer loop
      vertex 8.38595 9.75 -12.9174
      vertex 8.38595 13.5 -12.9174
      vertex 8.49516 9.75 -13.0784
    endloop
  endfacet
  facet normal -0.827691 0 -0.561183
    outer loop
      vertex 8.38595 13.5 -12.9174
      vertex 8.49516 13.5 -13.0784
      vertex 8.49516 9.75 -13.0784
    endloop
  endfacet
  facet normal -0.928975 0 -0.370142
    outer loop
      vertex 8.49516 9.75 -13.0784
      vertex 8.49516 13.5 -13.0784
      vertex 8.5672 9.75 -13.2592
    endloop
  endfacet
  facet normal -0.928975 0 -0.370142
    outer loop
      vertex 8.49516 13.5 -13.0784
      vertex 8.5672 13.5 -13.2592
      vertex 8.5672 9.75 -13.2592
    endloop
  endfacet
  facet normal -0.986827 0 -0.161778
    outer loop
      vertex 8.5672 9.75 -13.2592
      vertex 8.5672 13.5 -13.2592
      vertex 8.59868 9.75 -13.4513
    endloop
  endfacet
  facet normal -0.986827 0 -0.161778
    outer loop
      vertex 8.5672 13.5 -13.2592
      vertex 8.59868 13.5 -13.4513
      vertex 8.59868 9.75 -13.4513
    endloop
  endfacet
  facet normal -0.998533 0 0.0541381
    outer loop
      vertex 8.59868 9.75 -13.4513
      vertex 8.59868 13.5 -13.4513
      vertex 8.58814 9.75 -13.6456
    endloop
  endfacet
  facet normal -0.998533 0 0.0541381
    outer loop
      vertex 8.59868 13.5 -13.4513
      vertex 8.58814 13.5 -13.6456
      vertex 8.58814 9.75 -13.6456
    endloop
  endfacet
  facet normal -0.96355 0 0.267528
    outer loop
      vertex 8.58814 9.75 -13.6456
      vertex 8.58814 13.5 -13.6456
      vertex 8.53608 9.75 -13.8331
    endloop
  endfacet
  facet normal -0.96355 0 0.267528
    outer loop
      vertex 8.58814 13.5 -13.6456
      vertex 8.53608 13.5 -13.8331
      vertex 8.53608 9.75 -13.8331
    endloop
  endfacet
  facet normal -0.883513 0 0.468407
    outer loop
      vertex 8.53608 9.75 -13.8331
      vertex 8.53608 13.5 -13.8331
      vertex 8.44492 9.75 -14.0051
    endloop
  endfacet
  facet normal -0.883513 0 0.468407
    outer loop
      vertex 8.53608 13.5 -13.8331
      vertex 8.44492 13.5 -14.0051
      vertex 8.44492 9.75 -14.0051
    endloop
  endfacet
  facet normal -0.796093 0 0.605174
    outer loop
      vertex 8.44492 9.75 -14.0051
      vertex 8.44492 13.5 -14.0051
      vertex 8.38595 9.75 -14.0826
    endloop
  endfacet
  facet normal -0.796093 0 0.605174
    outer loop
      vertex 8.44492 13.5 -14.0051
      vertex 8.38595 13.5 -14.0826
      vertex 8.38595 9.75 -14.0826
    endloop
  endfacet
  facet normal -0.687698 0 0.725997
    outer loop
      vertex 8.38595 9.75 -14.0826
      vertex 8.38595 13.5 -14.0826
      vertex 8.24466 9.75 -14.2165
    endloop
  endfacet
  facet normal -0.687698 0 0.725997
    outer loop
      vertex 8.38595 13.5 -14.0826
      vertex 8.24466 13.5 -14.2165
      vertex 8.24466 9.75 -14.2165
    endloop
  endfacet
  facet normal -0.515553 0 0.856858
    outer loop
      vertex 8.24466 9.75 -14.2165
      vertex 8.24466 13.5 -14.2165
      vertex 8.0779 9.75 -14.3168
    endloop
  endfacet
  facet normal -0.515553 0 0.856858
    outer loop
      vertex 8.24466 13.5 -14.2165
      vertex 8.0779 13.5 -14.3168
      vertex 8.0779 9.75 -14.3168
    endloop
  endfacet
  facet normal -0.319303 0 0.947653
    outer loop
      vertex 8.0779 9.75 -14.3168
      vertex 8.0779 13.5 -14.3168
      vertex 7.89347 9.75 -14.379
    endloop
  endfacet
  facet normal -0.319303 0 0.947653
    outer loop
      vertex 8.0779 13.5 -14.3168
      vertex 7.89347 13.5 -14.379
      vertex 7.89347 9.75 -14.379
    endloop
  endfacet
  facet normal -0.108118 0 0.994138
    outer loop
      vertex 7.89347 9.75 -14.379
      vertex 7.89347 13.5 -14.379
      vertex 7.7 9.75 -14.4
    endloop
  endfacet
  facet normal -0.108118 0 0.994138
    outer loop
      vertex 7.89347 13.5 -14.379
      vertex 7.7 13.5 -14.4
      vertex 7.7 9.75 -14.4
    endloop
  endfacet
  facet normal 0.108118 0 0.994138
    outer loop
      vertex 7.7 9.75 -14.4
      vertex 7.7 13.5 -14.4
      vertex 7.50653 9.75 -14.379
    endloop
  endfacet
  facet normal 0.108118 0 0.994138
    outer loop
      vertex 7.7 13.5 -14.4
      vertex 7.50653 13.5 -14.379
      vertex 7.50653 9.75 -14.379
    endloop
  endfacet
  facet normal 0.319302 0 0.947653
    outer loop
      vertex 7.50653 9.75 -14.379
      vertex 7.50653 13.5 -14.379
      vertex 7.3221 9.75 -14.3168
    endloop
  endfacet
  facet normal 0.319302 0 0.947653
    outer loop
      vertex 7.50653 13.5 -14.379
      vertex 7.3221 13.5 -14.3168
      vertex 7.3221 9.75 -14.3168
    endloop
  endfacet
  facet normal 0.515554 0 0.856857
    outer loop
      vertex 7.3221 9.75 -14.3168
      vertex 7.3221 13.5 -14.3168
      vertex 7.15534 9.75 -14.2165
    endloop
  endfacet
  facet normal 0.515554 0 0.856857
    outer loop
      vertex 7.3221 13.5 -14.3168
      vertex 7.15534 13.5 -14.2165
      vertex 7.15534 9.75 -14.2165
    endloop
  endfacet
  facet normal 0.687698 0 0.725997
    outer loop
      vertex 7.15534 9.75 -14.2165
      vertex 7.15534 13.5 -14.2165
      vertex 7.01405 9.75 -14.0826
    endloop
  endfacet
  facet normal 0.687698 0 0.725997
    outer loop
      vertex 7.15534 13.5 -14.2165
      vertex 7.01405 13.5 -14.0826
      vertex 7.01405 9.75 -14.0826
    endloop
  endfacet
  facet normal 0.796091 0 0.605177
    outer loop
      vertex 7.01405 9.75 -14.0826
      vertex 7.01405 13.5 -14.0826
      vertex 6.95508 9.75 -14.0051
    endloop
  endfacet
  facet normal 0.796091 0 0.605177
    outer loop
      vertex 7.01405 13.5 -14.0826
      vertex 6.95508 13.5 -14.0051
      vertex 6.95508 9.75 -14.0051
    endloop
  endfacet
  facet normal 0.856859 0 0.51555
    outer loop
      vertex 6.95508 9.75 -14.0051
      vertex 6.95508 13.5 -14.0051
      vertex 6.90484 9.75 -13.9216
    endloop
  endfacet
  facet normal 0.856859 0 0.51555
    outer loop
      vertex 6.95508 13.5 -14.0051
      vertex 6.90484 13.5 -13.9216
      vertex 6.90484 9.75 -13.9216
    endloop
  endfacet
  facet normal 0.928977 0 0.370138
    outer loop
      vertex 6.90484 9.75 -13.9216
      vertex 6.90484 13.5 -13.9216
      vertex 6.8328 9.75 -13.7408
    endloop
  endfacet
  facet normal 0.928977 0 0.370138
    outer loop
      vertex 6.90484 13.5 -13.9216
      vertex 6.8328 13.5 -13.7408
      vertex 6.8328 9.75 -13.7408
    endloop
  endfacet
  facet normal 0.986826 0 0.161783
    outer loop
      vertex 6.8328 9.75 -13.7408
      vertex 6.8328 13.5 -13.7408
      vertex 6.80132 9.75 -13.5487
    endloop
  endfacet
  facet normal 0.986826 0 0.161783
    outer loop
      vertex 6.8328 13.5 -13.7408
      vertex 6.80132 13.5 -13.5487
      vertex 6.80132 9.75 -13.5487
    endloop
  endfacet
  facet normal 0.998533 0 -0.0541405
    outer loop
      vertex 6.80132 9.75 -13.5487
      vertex 6.80132 13.5 -13.5487
      vertex 6.81186 9.75 -13.3544
    endloop
  endfacet
  facet normal 0.998533 0 -0.0541405
    outer loop
      vertex 6.80132 13.5 -13.5487
      vertex 6.81186 13.5 -13.3544
      vertex 6.81186 9.75 -13.3544
    endloop
  endfacet
  facet normal 0.96355 0 -0.267527
    outer loop
      vertex 6.81186 9.75 -13.3544
      vertex 6.81186 13.5 -13.3544
      vertex 6.86392 9.75 -13.1669
    endloop
  endfacet
  facet normal 0.96355 0 -0.267527
    outer loop
      vertex 6.81186 13.5 -13.3544
      vertex 6.86392 13.5 -13.1669
      vertex 6.86392 9.75 -13.1669
    endloop
  endfacet
  facet normal 0.883512 0 -0.468409
    outer loop
      vertex 6.86392 9.75 -13.1669
      vertex 6.86392 13.5 -13.1669
      vertex 6.95508 9.75 -12.9949
    endloop
  endfacet
  facet normal 0.883512 0 -0.468409
    outer loop
      vertex 6.86392 13.5 -13.1669
      vertex 6.95508 13.5 -12.9949
      vertex 6.95508 9.75 -12.9949
    endloop
  endfacet
  facet normal 0.762163 0 -0.647386
    outer loop
      vertex 6.95508 9.75 -12.9949
      vertex 6.95508 13.5 -12.9949
      vertex 7.08107 9.75 -12.8466
    endloop
  endfacet
  facet normal 0.762163 0 -0.647386
    outer loop
      vertex 6.95508 13.5 -12.9949
      vertex 7.08107 13.5 -12.8466
      vertex 7.08107 9.75 -12.8466
    endloop
  endfacet
  facet normal 0.605173 0 -0.796094
    outer loop
      vertex 7.08107 9.75 -12.8466
      vertex 7.08107 13.5 -12.8466
      vertex 7.236 9.75 -12.7288
    endloop
  endfacet
  facet normal 0.605173 0 -0.796094
    outer loop
      vertex 7.08107 13.5 -12.8466
      vertex 7.236 13.5 -12.7288
      vertex 7.236 9.75 -12.7288
    endloop
  endfacet
  facet normal 0.419892 0 -0.907574
    outer loop
      vertex 7.236 9.75 -12.7288
      vertex 7.236 13.5 -12.7288
      vertex 7.41263 9.75 -12.6471
    endloop
  endfacet
  facet normal 0.419892 0 -0.907574
    outer loop
      vertex 7.236 13.5 -12.7288
      vertex 7.41263 13.5 -12.6471
      vertex 7.41263 9.75 -12.6471
    endloop
  endfacet
  facet normal 0.214969 0 -0.976621
    outer loop
      vertex 7.41263 9.75 -12.6471
      vertex 7.41263 13.5 -12.6471
      vertex 7.60269 9.75 -12.6053
    endloop
  endfacet
  facet normal 0.214969 0 -0.976621
    outer loop
      vertex 7.41263 13.5 -12.6471
      vertex 7.60269 13.5 -12.6053
      vertex 7.60269 9.75 -12.6053
    endloop
  endfacet
  facet normal 0.0541401 0 -0.998533
    outer loop
      vertex 7.60269 9.75 -12.6053
      vertex 7.60269 13.5 -12.6053
      vertex 7.7 9.75 -12.6
    endloop
  endfacet
  facet normal 0.0541401 0 -0.998533
    outer loop
      vertex 7.60269 13.5 -12.6053
      vertex 7.7 13.5 -12.6
      vertex 7.7 9.75 -12.6
    endloop
  endfacet
  facet normal 0 1 0
    outer loop
      vertex 7.50653 9.5 -4.62104
      vertex -10.3 9.5 -3.4
      vertex 10.3 9.5 -3.4
    endloop
  endfacet
  facet normal 0 1 0
    outer loop
      vertex -8.5672 9.5 -5.25922
      vertex -8.59868 9.5 -5.45128
      vertex -10.3 9.5 -3.4
    endloop
  endfacet
  facet normal 0 1 0
    outer loop
      vertex 8.0779 9.5 -4.68318
      vertex 7.89347 9.5 -4.62104
      vertex 10.3 9.5 -3.4
    endloop
  endfacet
  facet normal 0 1 0
    outer loop
      vertex 7.89347 9.5 -4.62104
      vertex 7.7 9.5 -4.6
      vertex 10.3 9.5 -3.4
    endloop
  endfacet
  facet normal 0 1 0
    outer loop
      vertex 10.3 9.5 -3.4
      vertex 7.7 9.5 -4.6
      vertex 7.50653 9.5 -4.62104
    endloop
  endfacet
  facet normal 0 1 0
    outer loop
      vertex 6.95508 9.5 -4.99493
      vertex 6.90484 9.5 -5.07843
      vertex -7.50653 9.5 -4.62104
    endloop
  endfacet
  facet normal 0 1 0
    outer loop
      vertex 6.90484 9.5 -5.07843
      vertex 6.8328 9.5 -5.25922
      vertex -7.50653 9.5 -4.62104
    endloop
  endfacet
  facet normal 0 1 0
    outer loop
      vertex -7.50653 9.5 -4.62104
      vertex 6.8328 9.5 -5.25922
      vertex -7.3221 9.5 -4.68318
    endloop
  endfacet
  facet normal 0 1 0
    outer loop
      vertex 6.8328 9.5 -5.25922
      vertex 6.80132 9.5 -5.45128
      vertex -7.3221 9.5 -4.68318
    endloop
  endfacet
  facet normal 0 1 0
    outer loop
      vertex -7.50653 9.5 -4.62104
      vertex -7.7 9.5 -4.6
      vertex -10.3 9.5 -3.4
    endloop
  endfacet
  facet normal 0 1 0
    outer loop
      vertex -7.7 9.5 -4.6
      vertex -7.89347 9.5 -4.62104
      vertex -10.3 9.5 -3.4
    endloop
  endfacet
  facet normal 0 1 0
    outer loop
      vertex -10.3 9.5 -3.4
      vertex -8.59868 9.5 -5.45128
      vertex -10.3 9.5 -7.7
    endloop
  endfacet
  facet normal 0 1 0
    outer loop
      vertex 10.3 9.5 -3.4
      vertex 8.53608 9.5 -5.16688
      vertex 8.44492 9.5 -4.99493
    endloop
  endfacet
  facet normal 0 1 0
    outer loop
      vertex 7.50653 9.5 -4.62104
      vertex 7.3221 9.5 -4.68318
      vertex -10.3 9.5 -3.4
    endloop
  endfacet
  facet normal 0 1 0
    outer loop
      vertex 7.3221 9.5 -4.68318
      vertex 7.15534 9.5 -4.78352
      vertex -10.3 9.5 -3.4
    endloop
  endfacet
  facet normal 0 1 0
    outer loop
      vertex -10.3 9.5 -3.4
      vertex 7.15534 9.5 -4.78352
      vertex -7.50653 9.5 -4.62104
    endloop
  endfacet
  facet normal 0 1 0
    outer loop
      vertex 7.15534 9.5 -4.78352
      vertex 7.01405 9.5 -4.91735
      vertex -7.50653 9.5 -4.62104
    endloop
  endfacet
  facet normal 0 1 0
    outer loop
      vertex -7.50653 9.5 -4.62104
      vertex 7.01405 9.5 -4.91735
      vertex 6.95508 9.5 -4.99493
    endloop
  endfacet
  facet normal 0 1 0
    outer loop
      vertex 10.3 9.5 -7.7
      vertex 8.59868 9.5 -5.54872
      vertex 10.3 9.5 -3.4
    endloop
  endfacet
  facet normal 0 1 0
    outer loop
      vertex 8.59868 9.5 -5.54872
      vertex 8.58814 9.5 -5.3544
      vertex 10.3 9.5 -3.4
    endloop
  endfacet
  facet normal 0 1 0
    outer loop
      vertex 10.3 9.5 -3.4
      vertex 8.58814 9.5 -5.3544
      vertex 8.53608 9.5 -5.16688
    endloop
  endfacet
  facet normal 0 1 0
    outer loop
      vertex 8.44492 9.5 -4.99493
      vertex 8.38595 9.5 -4.91735
      vertex 10.3 9.5 -3.4
    endloop
  endfacet
  facet normal 0 1 0
    outer loop
      vertex 8.38595 9.5 -4.91735
      vertex 8.24466 9.5 -4.78352
      vertex 10.3 9.5 -3.4
    endloop
  endfacet
  facet normal 0 1 0
    outer loop
      vertex 10.3 9.5 -3.4
      vertex 8.24466 9.5 -4.78352
      vertex 8.0779 9.5 -4.68318
    endloop
  endfacet
  facet normal 0 1 0
    outer loop
      vertex -6.81186 9.5 -5.3544
      vertex -6.86392 9.5 -5.16688
      vertex 6.80132 9.5 -5.45128
    endloop
  endfacet
  facet normal 0 1 0
    outer loop
      vertex -6.86392 9.5 -5.16688
      vertex -6.95508 9.5 -4.99493
      vertex 6.80132 9.5 -5.45128
    endloop
  endfacet
  facet normal 0 1 0
    outer loop
      vertex 6.95508 9.5 -6.00507
      vertex 7.08107 9.5 -6.1534
      vertex -10.3 9.5 -7.7
    endloop
  endfacet
  facet normal 0 1 0
    outer loop
      vertex 7.08107 9.5 -6.1534
      vertex 7.236 9.5 -6.27117
      vertex -10.3 9.5 -7.7
    endloop
  endfacet
  facet normal 0 1 0
    outer loop
      vertex 8.38595 9.5 -6.08265
      vertex 8.49516 9.5 -5.92157
      vertex 10.3 9.5 -7.7
    endloop
  endfacet
  facet normal 0 1 0
    outer loop
      vertex 8.49516 9.5 -5.92157
      vertex 8.5672 9.5 -5.74078
      vertex 10.3 9.5 -7.7
    endloop
  endfacet
  facet normal 0 1 0
    outer loop
      vertex 10.3 9.5 -7.7
      vertex 8.5672 9.5 -5.74078
      vertex 8.59868 9.5 -5.54872
    endloop
  endfacet
  facet normal 0 1 0
    outer loop
      vertex -7.89347 9.5 -4.62104
      vertex -8.0779 9.5 -4.68318
      vertex -10.3 9.5 -3.4
    endloop
  endfacet
  facet normal 0 1 0
    outer loop
      vertex -8.0779 9.5 -4.68318
      vertex -8.24466 9.5 -4.78352
      vertex -10.3 9.5 -3.4
    endloop
  endfacet
  facet normal 0 1 0
    outer loop
      vertex -10.3 9.5 -3.4
      vertex -8.24466 9.5 -4.78352
      vertex -8.38595 9.5 -4.91735
    endloop
  endfacet
  facet normal 0 1 0
    outer loop
      vertex -8.59868 9.5 -5.45128
      vertex -8.58814 9.5 -5.6456
      vertex -10.3 9.5 -7.7
    endloop
  endfacet
  facet normal 0 1 0
    outer loop
      vertex -8.58814 9.5 -5.6456
      vertex -8.53608 9.5 -5.83312
      vertex -10.3 9.5 -7.7
    endloop
  endfacet
  facet normal 0 1 0
    outer loop
      vertex -10.3 9.5 -7.7
      vertex -8.53608 9.5 -5.83312
      vertex -8.44492 9.5 -6.00507
    endloop
  endfacet
  facet normal 0 1 0
    outer loop
      vertex -7.01405 9.5 -6.08265
      vertex 6.86392 9.5 -5.83312
      vertex -7.15534 9.5 -6.21648
    endloop
  endfacet
  facet normal 0 1 0
    outer loop
      vertex 6.86392 9.5 -5.83312
      vertex -7.3221 9.5 -6.31682
      vertex -7.15534 9.5 -6.21648
    endloop
  endfacet
  facet normal 0 1 0
    outer loop
      vertex -7.01405 9.5 -6.08265
      vertex -6.90484 9.5 -5.92157
      vertex 6.86392 9.5 -5.83312
    endloop
  endfacet
  facet normal 0 1 0
    outer loop
      vertex -6.90484 9.5 -5.92157
      vertex -6.8328 9.5 -5.74078
      vertex 6.86392 9.5 -5.83312
    endloop
  endfacet
  facet normal 0 1 0
    outer loop
      vertex 6.86392 9.5 -5.83312
      vertex -6.8328 9.5 -5.74078
      vertex -6.80132 9.5 -5.54872
    endloop
  endfacet
  facet normal 0 1 0
    outer loop
      vertex -6.81186 9.5 -5.3544
      vertex 6.80132 9.5 -5.45128
      vertex -6.80132 9.5 -5.54872
    endloop
  endfacet
  facet normal 0 1 0
    outer loop
      vertex 6.80132 9.5 -5.45128
      vertex 6.81186 9.5 -5.6456
      vertex -6.80132 9.5 -5.54872
    endloop
  endfacet
  facet normal 0 1 0
    outer loop
      vertex -6.80132 9.5 -5.54872
      vertex 6.81186 9.5 -5.6456
      vertex 6.86392 9.5 -5.83312
    endloop
  endfacet
  facet normal 0 1 0
    outer loop
      vertex -6.95508 9.5 -4.99493
      vertex -7.01405 9.5 -4.91735
      vertex 6.80132 9.5 -5.45128
    endloop
  endfacet
  facet normal 0 1 0
    outer loop
      vertex -7.01405 9.5 -4.91735
      vertex -7.15534 9.5 -4.78352
      vertex 6.80132 9.5 -5.45128
    endloop
  endfacet
  facet normal 0 1 0
    outer loop
      vertex 6.80132 9.5 -5.45128
      vertex -7.15534 9.5 -4.78352
      vertex -7.3221 9.5 -4.68318
    endloop
  endfacet
  facet normal 0 1 0
    outer loop
      vertex 7.89347 9.5 -6.37896
      vertex 8.0779 9.5 -6.31682
      vertex 10.3 9.5 -7.7
    endloop
  endfacet
  facet normal 0 1 0
    outer loop
      vertex 8.0779 9.5 -6.31682
      vertex 8.24466 9.5 -6.21648
      vertex 10.3 9.5 -7.7
    endloop
  endfacet
  facet normal 0 1 0
    outer loop
      vertex 10.3 9.5 -7.7
      vertex 8.24466 9.5 -6.21648
      vertex 8.38595 9.5 -6.08265
    endloop
  endfacet
  facet normal 0 1 0
    outer loop
      vertex -8.38595 9.5 -4.91735
      vertex -8.44492 9.5 -4.99493
      vertex -10.3 9.5 -3.4
    endloop
  endfacet
  facet normal 0 1 0
    outer loop
      vertex -8.44492 9.5 -4.99493
      vertex -8.49516 9.5 -5.07843
      vertex -10.3 9.5 -3.4
    endloop
  endfacet
  facet normal 0 1 0
    outer loop
      vertex -10.3 9.5 -3.4
      vertex -8.49516 9.5 -5.07843
      vertex -8.5672 9.5 -5.25922
    endloop
  endfacet
  facet normal 0 1 0
    outer loop
      vertex -8.44492 9.5 -6.00507
      vertex -8.31893 9.5 -6.1534
      vertex -10.3 9.5 -7.7
    endloop
  endfacet
  facet normal 0 1 0
    outer loop
      vertex -8.31893 9.5 -6.1534
      vertex -8.164 9.5 -6.27117
      vertex -10.3 9.5 -7.7
    endloop
  endfacet
  facet normal 0 1 0
    outer loop
      vertex -10.3 9.5 -7.7
      vertex -8.164 9.5 -6.27117
      vertex -7.98737 9.5 -6.35289
    endloop
  endfacet
  facet normal 0 1 0
    outer loop
      vertex 7.236 9.5 -6.27117
      vertex 7.41263 9.5 -6.35289
      vertex -10.3 9.5 -7.7
    endloop
  endfacet
  facet normal 0 1 0
    outer loop
      vertex 7.41263 9.5 -6.35289
      vertex 7.60269 9.5 -6.39472
      vertex -10.3 9.5 -7.7
    endloop
  endfacet
  facet normal 0 1 0
    outer loop
      vertex -10.3 9.5 -7.7
      vertex 7.60269 9.5 -6.39472
      vertex 10.3 9.5 -7.7
    endloop
  endfacet
  facet normal 0 1 0
    outer loop
      vertex 7.60269 9.5 -6.39472
      vertex 7.7 9.5 -6.4
      vertex 10.3 9.5 -7.7
    endloop
  endfacet
  facet normal 0 1 0
    outer loop
      vertex 10.3 9.5 -7.7
      vertex 7.7 9.5 -6.4
      vertex 7.89347 9.5 -6.37896
    endloop
  endfacet
  facet normal 0 1 0
    outer loop
      vertex 6.95508 9.5 -6.00507
      vertex -10.3 9.5 -7.7
      vertex 6.86392 9.5 -5.83312
    endloop
  endfacet
  facet normal 0 1 0
    outer loop
      vertex -10.3 9.5 -7.7
      vertex -7.50653 9.5 -6.37896
      vertex 6.86392 9.5 -5.83312
    endloop
  endfacet
  facet normal 0 1 0
    outer loop
      vertex 6.86392 9.5 -5.83312
      vertex -7.50653 9.5 -6.37896
      vertex -7.3221 9.5 -6.31682
    endloop
  endfacet
  facet normal 0 1 0
    outer loop
      vertex -7.98737 9.5 -6.35289
      vertex -7.79731 9.5 -6.39472
      vertex -10.3 9.5 -7.7
    endloop
  endfacet
  facet normal 0 1 0
    outer loop
      vertex -7.79731 9.5 -6.39472
      vertex -7.7 9.5 -6.4
      vertex -10.3 9.5 -7.7
    endloop
  endfacet
  facet normal 0 1 0
    outer loop
      vertex -10.3 9.5 -7.7
      vertex -7.7 9.5 -6.4
      vertex -7.50653 9.5 -6.37896
    endloop
  endfacet
  facet normal 0 0 1
    outer loop
      vertex -10.3 8 -3.4
      vertex 10.3 8 -3.4
      vertex -10.3 9.5 -3.4
    endloop
  endfacet
  facet normal 0 0 1
    outer loop
      vertex 10.3 8 -3.4
      vertex 10.3 9.5 -3.4
      vertex -10.3 9.5 -3.4
    endloop
  endfacet
endsolid Mesh
